<?xml version="1.0" encoding="utf-8"?>
<!-- Generator: Adobe Illustrator 28.2.0, SVG Export Plug-In . SVG Version: 6.00 Build 0)  -->
<svg version="1.1" id="Layer_1" xmlns="http://www.w3.org/2000/svg" xmlns:xlink="http://www.w3.org/1999/xlink" x="0px" y="0px"
	 viewBox="0 0 204 60" style="enable-background:new 0 0 204 60;" xml:space="preserve">
<style type="text/css">
	.st0{fill:#E53D3C;}
	.st1{fill:#CAD1DC;}
	.st2{fill:#EBE729;}
	.st3{opacity:0.15;}
	.st4{fill:#231E1E;}
	.st5{fill:#FFFFFF;}
	.st6{enable-background:new    ;}
</style>
<g>
	<g>
		<g>
			<g>
				<polygon class="st0" points="1.2,8.4 25.9,33.1 50.6,8.3 				"/>
				<g>
					<g>
						<polygon class="st1" points="-0.1,9.6 -0.1,59 24.6,34.3 						"/>
					</g>
					<polygon class="st2" points="-0.1,59 24.6,34.3 -0.1,9.6 					"/>
				</g>
				<g class="st3">
					<polygon points="25.9,33.1 29.8,29.1 1.2,8.4 					"/>
				</g>
				<g class="st3">
					<polygon points="-0.1,9.6 20.7,38.2 24.6,34.3 					"/>
				</g>
			</g>
		</g>
		<polygon class="st4" points="51.6,9.6 51.6,60.1 1.2,60.1 		"/>
		<polygon class="st5" points="50,13.6 50,58.4 5.2,58.4 		"/>
		<polygon class="st3" points="50,13.6 47,55.4 5.2,58.4 44.4,58.4 50,58.4 		"/>
	</g>
	<g class="st6">
		<path class="st5" d="M95.7,55.5c-3,0-5.5-0.5-7.8-1.4c-2.2-0.9-4.1-2.2-5.6-3.9c-1.5-1.7-2.7-3.7-3.4-6c-0.8-2.3-1.1-4.9-1.1-7.7
			c0-2.8,0.4-5.4,1.2-7.7c0.8-2.3,2-4.4,3.5-6.1c1.5-1.7,3.3-3,5.5-4c2.2-1,4.6-1.4,7.3-1.4c1.6,0,3.3,0.1,4.9,0.4
			c1.6,0.3,3.2,0.7,4.7,1.3l-1.5,5.6c-1-0.5-2.1-0.8-3.4-1.1c-1.3-0.3-2.7-0.4-4.1-0.4c-3.7,0-6.5,1.1-8.4,3.4
			c-1.9,2.3-2.9,5.6-2.9,10.1c0,2,0.2,3.8,0.7,5.4c0.4,1.6,1.1,3,2.1,4.2c1,1.2,2.2,2.1,3.7,2.7c1.5,0.6,3.3,0.9,5.5,0.9
			c1.7,0,3.3-0.2,4.7-0.5c1.4-0.3,2.5-0.7,3.3-1.1l0.9,5.5c-0.4,0.2-0.9,0.5-1.6,0.7c-0.7,0.2-1.5,0.4-2.4,0.6
			c-0.9,0.2-1.8,0.3-2.8,0.4C97.6,55.4,96.6,55.5,95.7,55.5z"/>
		<path class="st5" d="M121.8,34.5c1.4,1.1,2.9,2.4,4.5,4c1.6,1.6,3.1,3.3,4.6,5.2c1.5,1.9,3,3.7,4.3,5.6c1.4,1.9,2.5,3.7,3.4,5.3
			H131c-1-1.6-2.1-3.3-3.4-5c-1.3-1.7-2.6-3.4-4-4.9c-1.4-1.6-2.8-3-4.3-4.3c-1.5-1.3-2.8-2.4-4.1-3.3v17.6h-6.5V1.2l6.5-1.1v33.3
			c1.1-1.1,2.4-2.4,3.7-3.7c1.4-1.4,2.7-2.7,4-4.1c1.3-1.4,2.6-2.8,3.7-4c1.2-1.3,2.2-2.4,3-3.4h7.7c-1.1,1.2-2.2,2.5-3.5,3.9
			c-1.3,1.4-2.6,2.8-3.9,4.3c-1.4,1.4-2.7,2.9-4.1,4.3C124.3,31.9,123,33.2,121.8,34.5z"/>
		<path class="st5" d="M153.3,17.1c2.6,0,4.8,0.3,6.6,1c1.8,0.7,3.3,1.6,4.4,2.9c1.1,1.2,1.9,2.7,2.4,4.4c0.5,1.7,0.7,3.6,0.7,5.7
			V54c-0.6,0.1-1.3,0.2-2.4,0.4c-1,0.2-2.1,0.3-3.4,0.5c-1.3,0.1-2.6,0.3-4.1,0.4c-1.5,0.1-2.9,0.2-4.4,0.2c-2.1,0-4-0.2-5.7-0.6
			c-1.7-0.4-3.2-1.1-4.5-2c-1.3-0.9-2.2-2.1-3-3.6c-0.7-1.5-1.1-3.3-1.1-5.4c0-2,0.4-3.8,1.2-5.2c0.8-1.5,1.9-2.6,3.3-3.5
			c1.4-0.9,3-1.5,4.9-2c1.9-0.4,3.8-0.6,5.9-0.6c0.7,0,1.3,0,2,0.1c0.7,0.1,1.4,0.2,2,0.3c0.6,0.1,1.2,0.2,1.7,0.3
			c0.5,0.1,0.8,0.2,1,0.2v-1.8c0-1.1-0.1-2.1-0.4-3.2c-0.2-1.1-0.7-2-1.3-2.8c-0.6-0.8-1.4-1.5-2.5-2c-1.1-0.5-2.4-0.7-4.1-0.7
			c-2.2,0-4,0.2-5.7,0.5c-1.6,0.3-2.8,0.6-3.6,0.9l-0.8-5.4c0.8-0.4,2.2-0.7,4.2-1.1C148.8,17.3,151,17.1,153.3,17.1z M153.8,49.9
			c1.5,0,2.9,0,4.1-0.1c1.2-0.1,2.2-0.2,3-0.4V38.5c-0.5-0.2-1.2-0.4-2.3-0.6c-1.1-0.2-2.3-0.2-3.8-0.2c-1,0-2,0.1-3.1,0.2
			c-1.1,0.1-2.1,0.4-3,0.9c-0.9,0.4-1.7,1.1-2.3,1.8c-0.6,0.8-0.9,1.8-0.9,3.1c0,2.3,0.7,4,2.3,4.9
			C149.2,49.5,151.2,49.9,153.8,49.9z"/>
		<path class="st5" d="M174.3,19.1c1.5-0.4,3.5-0.8,6-1.2c2.5-0.4,5.3-0.6,8.6-0.6c2.9,0,5.3,0.4,7.2,1.2c1.9,0.8,3.5,2,4.6,3.4
			c1.1,1.5,2,3.2,2.4,5.3c0.5,2.1,0.7,4.3,0.7,6.8v20.5h-6.5V35.5c0-2.2-0.2-4.2-0.5-5.8c-0.3-1.6-0.8-2.9-1.5-3.9
			c-0.7-1-1.6-1.7-2.8-2.1c-1.2-0.4-2.6-0.7-4.4-0.7c-0.7,0-1.4,0-2.2,0.1c-0.8,0-1.5,0.1-2.1,0.2c-0.7,0.1-1.3,0.2-1.8,0.2
			c-0.5,0.1-0.9,0.2-1.2,0.2v30.9h-6.5V19.1z"/>
	</g>
</g>
</svg>
