<?xml version="1.0" encoding="utf-8"?>
<!-- Generator: Adobe Illustrator 28.2.0, SVG Export Plug-In . SVG Version: 6.00 Build 0)  -->
<svg version="1.1" id="Layer_1" xmlns="http://www.w3.org/2000/svg" xmlns:xlink="http://www.w3.org/1999/xlink" x="0px" y="0px"
	 viewBox="0 0 166.3 20" style="enable-background:new 0 0 166.3 20;" xml:space="preserve">
<style type="text/css">
	.st0{enable-background:new    ;}
	.st1{fill:#FFFFFF;}
	.st2{fill:#0064FF;}
	.st3{fill:#182951;}
	.st4{fill:#E53D3C;}
	.st5{fill:#CAD1DC;}
	.st6{fill:#EBE729;}
	.st7{opacity:0.15;}
	.st8{fill:#231E1E;}
</style>
<g>
	<g>
		<g class="st0">
			<path class="st1" d="M126.9,20c-1.1,0-2-0.2-2.8-0.5c-0.8-0.3-1.5-0.8-2-1.4c-0.5-0.6-1-1.3-1.2-2.2c-0.3-0.8-0.4-1.8-0.4-2.8
				c0-1,0.1-1.9,0.4-2.8c0.3-0.8,0.7-1.6,1.3-2.2c0.5-0.6,1.2-1.1,2-1.4c0.8-0.3,1.7-0.5,2.6-0.5c0.6,0,1.2,0.1,1.8,0.2
				c0.6,0.1,1.2,0.3,1.7,0.5l-0.5,2c-0.4-0.2-0.8-0.3-1.2-0.4c-0.5-0.1-1-0.2-1.5-0.2c-1.3,0-2.3,0.4-3,1.2c-0.7,0.8-1.1,2-1.1,3.6
				c0,0.7,0.1,1.4,0.2,2c0.2,0.6,0.4,1.1,0.8,1.5c0.3,0.4,0.8,0.7,1.3,1c0.5,0.2,1.2,0.3,2,0.3c0.6,0,1.2-0.1,1.7-0.2
				c0.5-0.1,0.9-0.2,1.2-0.4l0.3,2c-0.1,0.1-0.3,0.2-0.6,0.2c-0.3,0.1-0.5,0.1-0.9,0.2c-0.3,0.1-0.7,0.1-1,0.2
				C127.6,20,127.3,20,126.9,20z"/>
			<path class="st1" d="M136.4,12.4c0.5,0.4,1,0.9,1.6,1.4c0.6,0.6,1.1,1.2,1.7,1.9c0.5,0.7,1.1,1.3,1.6,2c0.5,0.7,0.9,1.3,1.2,1.9
				h-2.8c-0.4-0.6-0.8-1.2-1.2-1.8c-0.5-0.6-1-1.2-1.5-1.8c-0.5-0.6-1-1.1-1.5-1.6c-0.5-0.5-1-0.9-1.5-1.2v6.3h-2.4V0.4l2.4-0.4v12
				c0.4-0.4,0.9-0.9,1.3-1.3c0.5-0.5,1-1,1.4-1.5c0.5-0.5,0.9-1,1.3-1.5c0.4-0.5,0.8-0.9,1.1-1.2h2.8c-0.4,0.4-0.8,0.9-1.3,1.4
				c-0.5,0.5-0.9,1-1.4,1.5c-0.5,0.5-1,1-1.5,1.5C137.3,11.5,136.8,12,136.4,12.4z"/>
			<path class="st1" d="M147.7,6.2c0.9,0,1.7,0.1,2.4,0.4c0.7,0.2,1.2,0.6,1.6,1c0.4,0.4,0.7,1,0.9,1.6c0.2,0.6,0.3,1.3,0.3,2v8.2
				c-0.2,0-0.5,0.1-0.9,0.1c-0.4,0.1-0.8,0.1-1.2,0.2c-0.5,0.1-1,0.1-1.5,0.1c-0.5,0-1.1,0.1-1.6,0.1c-0.7,0-1.4-0.1-2.1-0.2
				c-0.6-0.2-1.2-0.4-1.6-0.7c-0.5-0.3-0.8-0.8-1.1-1.3c-0.3-0.5-0.4-1.2-0.4-2c0-0.7,0.1-1.4,0.4-1.9c0.3-0.5,0.7-0.9,1.2-1.3
				c0.5-0.3,1.1-0.6,1.8-0.7c0.7-0.2,1.4-0.2,2.1-0.2c0.2,0,0.5,0,0.7,0c0.3,0,0.5,0.1,0.7,0.1c0.2,0,0.4,0.1,0.6,0.1
				c0.2,0,0.3,0.1,0.4,0.1v-0.7c0-0.4,0-0.8-0.1-1.2c-0.1-0.4-0.2-0.7-0.5-1c-0.2-0.3-0.5-0.5-0.9-0.7c-0.4-0.2-0.9-0.3-1.5-0.3
				c-0.8,0-1.5,0.1-2,0.2c-0.6,0.1-1,0.2-1.3,0.3l-0.3-2c0.3-0.1,0.8-0.3,1.5-0.4C146.1,6.2,146.9,6.2,147.7,6.2z M147.9,18
				c0.6,0,1.1,0,1.5,0c0.4,0,0.8-0.1,1.1-0.1v-3.9c-0.2-0.1-0.4-0.2-0.8-0.2c-0.4-0.1-0.8-0.1-1.4-0.1c-0.4,0-0.7,0-1.1,0.1
				c-0.4,0.1-0.8,0.2-1.1,0.3c-0.3,0.2-0.6,0.4-0.8,0.7c-0.2,0.3-0.3,0.6-0.3,1.1c0,0.8,0.3,1.4,0.8,1.8C146.2,17.8,147,18,147.9,18
				z"/>
			<path class="st1" d="M155.3,6.9c0.5-0.1,1.3-0.3,2.2-0.4c0.9-0.2,1.9-0.2,3.1-0.2c1,0,1.9,0.1,2.6,0.4c0.7,0.3,1.2,0.7,1.7,1.2
				c0.4,0.5,0.7,1.2,0.9,1.9c0.2,0.7,0.3,1.6,0.3,2.5v7.4h-2.4v-6.9c0-0.8-0.1-1.5-0.2-2.1c-0.1-0.6-0.3-1-0.5-1.4
				c-0.3-0.4-0.6-0.6-1-0.8c-0.4-0.2-0.9-0.2-1.6-0.2c-0.3,0-0.5,0-0.8,0c-0.3,0-0.5,0-0.8,0.1c-0.2,0-0.5,0.1-0.7,0.1
				c-0.2,0-0.3,0.1-0.4,0.1v11.1h-2.4V6.9z"/>
		</g>
	</g>
</g>
<g>
	<path class="st1" d="M27.1,11.9V9.3c0-0.2,0.1-0.3,0.3-0.3h1.4c0.2,0,0.3,0.1,0.3,0.3V17c0,0.5-0.1,1-0.2,1.4
		c-0.1,0.4-0.3,0.7-0.6,0.9c-0.3,0.2-0.6,0.4-1.1,0.5c-0.5,0.1-1,0.2-1.7,0.2h-4.1c-0.7,0-1.2-0.1-1.7-0.2c-0.4-0.1-0.8-0.3-1.1-0.5
		c-0.3-0.2-0.5-0.5-0.6-0.9C18.1,18,18,17.6,18,17v-2.1c0-0.5,0.1-1,0.2-1.4c0.1-0.4,0.3-0.7,0.6-0.9c0.3-0.2,0.6-0.4,1.1-0.5
		c0.4-0.1,1-0.2,1.7-0.2H27.1z M25.5,18.2c0.3,0,0.6,0,0.8-0.1c0.2-0.1,0.4-0.1,0.5-0.3c0.1-0.1,0.2-0.3,0.3-0.5
		c0-0.2,0.1-0.5,0.1-0.8v-2.9h-5.3c-0.3,0-0.6,0-0.8,0.1c-0.2,0.1-0.4,0.1-0.5,0.3c-0.1,0.1-0.2,0.3-0.3,0.5c0,0.2-0.1,0.5-0.1,0.8
		v1.3c0,0.3,0,0.6,0.1,0.8c0,0.2,0.1,0.4,0.3,0.5c0.1,0.1,0.3,0.2,0.5,0.3c0.2,0.1,0.5,0.1,0.8,0.1H25.5z"/>
	<path class="st1" d="M37.1,11.9c0.7,0,1.2,0.1,1.7,0.2c0.5,0.1,0.8,0.3,1.1,0.5c0.3,0.2,0.5,0.5,0.6,0.9c0.1,0.4,0.2,0.8,0.2,1.4
		v3.9c0,0.2,0,0.4-0.1,0.6c0,0.2-0.1,0.3-0.2,0.4c-0.1,0.1-0.2,0.1-0.3,0.2C40,20,39.8,20,39.6,20h-7c-0.4,0-0.8,0-1.1-0.1
		c-0.3-0.1-0.5-0.2-0.7-0.4c-0.2-0.2-0.3-0.4-0.4-0.6c-0.1-0.3-0.1-0.6-0.1-0.9v-0.7c0-0.3,0-0.6,0.1-0.8c0.1-0.2,0.2-0.4,0.4-0.6
		c0.2-0.2,0.4-0.3,0.7-0.4c0.3-0.1,0.6-0.1,1.1-0.1h6V15c0-0.2,0-0.4-0.1-0.6c0-0.2-0.1-0.3-0.3-0.4c-0.1-0.1-0.3-0.2-0.5-0.2
		c-0.2,0-0.5-0.1-0.8-0.1h-6.1c-0.2,0-0.3-0.1-0.3-0.3v-1.2c0-0.2,0.1-0.3,0.3-0.3H37.1z M38.1,18.4c0.2,0,0.3,0,0.3-0.1
		c0.1-0.1,0.1-0.2,0.1-0.4v-1.3h-5.4c-0.3,0-0.5,0.1-0.6,0.2c-0.1,0.1-0.2,0.3-0.2,0.5v0.3c0,0.3,0.1,0.5,0.2,0.6
		c0.1,0.1,0.3,0.2,0.6,0.2H38.1z"/>
	<path class="st1" d="M42.8,11.9V10c0-0.2,0.1-0.3,0.3-0.3h1.5c0.2,0,0.3,0.1,0.3,0.3v1.9h2.6c0.2,0,0.3,0.1,0.3,0.3v1.2
		c0,0.2-0.1,0.3-0.3,0.3h-2.6v3.4c0,0.4,0.1,0.7,0.2,0.9c0.2,0.2,0.5,0.3,1,0.3h1.4c0.2,0,0.3,0.1,0.3,0.3v1.2
		c0,0.2-0.1,0.3-0.3,0.3h-1.8c-0.6,0-1.1-0.1-1.5-0.2c-0.4-0.1-0.7-0.3-0.9-0.5s-0.4-0.5-0.5-0.9c-0.1-0.4-0.1-0.8-0.1-1.3v-3.4
		h-1.4c-0.2,0-0.3-0.1-0.3-0.3v-1.2c0-0.2,0.1-0.3,0.3-0.3H42.8z"/>
	<path class="st1" d="M50.7,9.7c0.2,0,0.3,0.1,0.3,0.3v3.8h6.9V10c0-0.2,0.1-0.3,0.3-0.3h1.6c0.2,0,0.3,0.1,0.3,0.3v9.6
		c0,0.2-0.1,0.3-0.3,0.3h-1.6c-0.2,0-0.3-0.1-0.3-0.3v-3.9H51v3.9c0,0.2-0.1,0.3-0.3,0.3h-1.6c-0.2,0-0.3-0.1-0.3-0.3V10
		c0-0.2,0.1-0.3,0.3-0.3H50.7z"/>
	<path class="st1" d="M69.1,11.9c0.5,0,0.9,0,1.2,0.1c0.3,0.1,0.6,0.2,0.8,0.4c0.2,0.2,0.3,0.4,0.4,0.8c0.1,0.3,0.1,0.7,0.1,1.1v1.4
		c0,0.3-0.1,0.5-0.2,0.7c-0.1,0.1-0.3,0.2-0.6,0.2h-7.4v0.4c0,0.5,0.1,0.8,0.3,1s0.6,0.3,1.3,0.3h6.1c0.2,0,0.3,0.1,0.3,0.3v1.2
		c0,0.2-0.1,0.3-0.3,0.3h-6.3c-0.7,0-1.2-0.1-1.7-0.2c-0.4-0.1-0.8-0.3-1.1-0.5c-0.3-0.2-0.5-0.5-0.6-0.9c-0.1-0.4-0.2-0.8-0.2-1.4
		v-2.1c0-0.5,0.1-1,0.2-1.4c0.1-0.4,0.3-0.7,0.6-0.9c0.3-0.2,0.6-0.4,1.1-0.5c0.4-0.1,1-0.2,1.7-0.2H69.1z M63.4,15.3h6
		c0.2,0,0.3-0.1,0.3-0.3v-0.6c0-0.3-0.1-0.5-0.2-0.6c-0.1-0.1-0.4-0.2-0.7-0.2H65c-0.6,0-1.1,0.1-1.3,0.3c-0.2,0.2-0.3,0.5-0.3,1
		V15.3z"/>
	<path class="st1" d="M80.5,11.9c0.2,0,0.3,0.1,0.3,0.3v1.2c0,0.2-0.1,0.3-0.3,0.3h-3.9c-0.3,0-0.6,0-0.8,0.1s-0.4,0.1-0.5,0.3
		c-0.1,0.1-0.2,0.3-0.3,0.5c0,0.2-0.1,0.5-0.1,0.8v4.4c0,0.2-0.1,0.3-0.3,0.3h-1.4c-0.2,0-0.3-0.1-0.3-0.3v-4.8c0-0.5,0.1-1,0.2-1.4
		c0.1-0.4,0.3-0.7,0.6-0.9c0.3-0.2,0.6-0.4,1.1-0.5c0.4-0.1,1-0.2,1.7-0.2H80.5z"/>
	<path class="st1" d="M89,11.9c0.5,0,0.9,0,1.2,0.1c0.3,0.1,0.6,0.2,0.8,0.4c0.2,0.2,0.3,0.4,0.4,0.8c0.1,0.3,0.1,0.7,0.1,1.1v1.4
		c0,0.3-0.1,0.5-0.2,0.7c-0.1,0.1-0.3,0.2-0.6,0.2h-7.4v0.4c0,0.5,0.1,0.8,0.3,1s0.6,0.3,1.3,0.3H91c0.2,0,0.3,0.1,0.3,0.3v1.2
		c0,0.2-0.1,0.3-0.3,0.3h-6.3c-0.7,0-1.2-0.1-1.7-0.2c-0.4-0.1-0.8-0.3-1.1-0.5c-0.3-0.2-0.5-0.5-0.6-0.9c-0.1-0.4-0.2-0.8-0.2-1.4
		v-2.1c0-0.5,0.1-1,0.2-1.4c0.1-0.4,0.3-0.7,0.6-0.9c0.3-0.2,0.6-0.4,1.1-0.5c0.4-0.1,1-0.2,1.7-0.2H89z M83.3,15.3h6
		c0.2,0,0.3-0.1,0.3-0.3v-0.6c0-0.3-0.1-0.5-0.2-0.6c-0.1-0.1-0.4-0.2-0.7-0.2h-3.7c-0.6,0-1.1,0.1-1.3,0.3c-0.2,0.2-0.3,0.5-0.3,1
		V15.3z"/>
</g>
<g>
	<path class="st2" d="M8,20l7-5.7c0.4-0.2,0.7-0.7,0.7-1.2V5.9c0-0.5-0.3-0.9-0.7-1.2L8.6,1C8.2,0.8,7.7,0.8,7.3,1L1,4.7
		C0.5,4.9,0.3,5.4,0.3,5.9v7.3c0,0.5,0.3,0.9,0.7,1.2L8,20z"/>
	<path class="st3" d="M14.6,4.8L8.8,1.5C8.4,1.2,7.7,1.2,7.3,1.4L1.8,4.5C1.4,4.7,1.1,5.2,1.1,5.6l0,6.8c0,0.5,0.5,1.2,0.9,1.4
		l5.4,3c0.4,0.2,1.3,0.2,1.7,0l4.3-2.8c0.4-0.2,1.5-0.9,1.5-1.4L15,5.8C15,5.3,15,5,14.6,4.8z"/>
	<g>
		<g>
			<rect x="5" y="8.3" class="st2" width="1.2" height="4.9"/>
			<rect x="7.2" y="7.1" class="st2" width="1.2" height="6.2"/>
			<rect x="9.4" y="9.6" class="st2" width="1.2" height="3.7"/>
		</g>
	</g>
	<path class="st1" d="M15,4.1L8.6,0.5c-0.4-0.2-0.9-0.2-1.4,0L1,4.1C0.5,4.4,0.3,4.8,0.3,5.3v7.3c0,0.5,0.3,0.9,0.7,1.2l6.3,3.7
		c0.4,0.2,0.9,0.2,1.4,0l6.3-3.7c0.4-0.2,0.7-0.7,0.7-1.2V5.3C15.6,4.8,15.4,4.4,15,4.1z M14.6,12.1c0,0.4-0.2,0.9-0.6,1
		c-0.6,0.2-11.6,0.1-12.1,0c-0.4-0.1-0.6-0.6-0.6-1V5.8c0-0.4,0.2-0.8,0.6-1l5.5-3.2c0.4-0.2,0.8-0.2,1.2,0L14,4.8
		c0.4,0.2,0.6,0.6,0.6,1V12.1z"/>
</g>
<g>
	<g>
		<g>
			<polygon class="st4" points="98.2,2 106.8,10.6 115.4,2 			"/>
			<g>
				<g>
					<polygon class="st5" points="97.8,2.4 97.8,19.6 106.4,11 					"/>
				</g>
				<polygon class="st6" points="97.8,19.6 106.4,11 97.8,2.4 				"/>
			</g>
			<g class="st7">
				<polygon points="106.8,10.6 108.2,9.2 98.2,2 				"/>
			</g>
			<g class="st7">
				<polygon points="97.8,2.4 105,12.4 106.4,11 				"/>
			</g>
		</g>
	</g>
	<polygon class="st8" points="115.8,2.4 115.8,20 98.2,20 	"/>
	<polygon class="st1" points="115.2,3.8 115.2,19.4 99.6,19.4 	"/>
	<polygon class="st7" points="115.2,3.8 114.2,18.4 99.6,19.4 113.3,19.4 115.2,19.4 	"/>
</g>
</svg>
