<?xml version="1.0" encoding="utf-8"?>
<!-- Generator: Adobe Illustrator 28.2.0, SVG Export Plug-In . SVG Version: 6.00 Build 0)  -->
<svg version="1.1" id="Layer_1" xmlns="http://www.w3.org/2000/svg" xmlns:xlink="http://www.w3.org/1999/xlink" x="0px" y="0px"
	 viewBox="0 0 200 200" style="enable-background:new 0 0 200 200;" xml:space="preserve">
<style type="text/css">
	.st0{opacity:0.5;}
	.st1{fill:#FFFFFF;}
	.st2{opacity:0.4;fill:#FFFFFF;}
	.st3{opacity:0.26;fill:#FFFFFF;}
	.st4{opacity:0.1;fill:#FFFFFF;}
	.st5{opacity:0.34;fill:#FFFFFF;}
	.st6{opacity:0.32;fill:#FFFFFF;}
	.st7{opacity:0.49;fill:#FFFFFF;}
	.st8{opacity:0.36;fill:#FFFFFF;}
	.st9{opacity:0.21;fill:#FFFFFF;}
	.st10{opacity:0.22;fill:#FFFFFF;}
	.st11{opacity:0.2;fill:#FFFFFF;}
	.st12{opacity:0.29;fill:#FFFFFF;}
	.st13{opacity:0.12;fill:#FFFFFF;}
	.st14{opacity:0.31;fill:#FFFFFF;}
	.st15{opacity:0.46;fill:#FFFFFF;}
	.st16{opacity:0.3;fill:#FFFFFF;}
	.st17{opacity:0.38;fill:#FFFFFF;}
	.st18{opacity:0.17;fill:#FFFFFF;}
	.st19{opacity:0.45;}
	.st20{opacity:0.17;}
	.st21{opacity:0.48;}
	.st22{opacity:0.31;}
	.st23{opacity:0.44;}
	.st24{opacity:0.28;}
	.st25{opacity:0.23;}
	.st26{opacity:0.33;}
	.st27{opacity:0.14;}
	.st28{opacity:0.35;}
	.st29{opacity:0.29;}
	.st30{opacity:0.27;}
	.st31{opacity:0.16;}
	.st32{opacity:0.38;}
	.st33{opacity:0.15;}
	.st34{opacity:0.43;}
	.st35{opacity:0.4;}
	.st36{opacity:0.11;}
	.st37{opacity:0.34;}
	.st38{opacity:0.3;}
	.st39{opacity:0.18;}
	.st40{opacity:0.46;}
	.st41{opacity:0.22;}
	.st42{opacity:0.12;}
</style>
<g class="st0">
	<path class="st1" d="M134,176.7c0,0,0.5-0.2,1.4-0.7c0.5-0.2,1.1-0.5,1.8-0.8c0.3-0.2,0.7-0.3,1.1-0.5c0.4-0.2,0.8-0.4,1.3-0.7
		c3.6-1.9,8.8-4.9,14.7-9.7c0.7-0.6,1.5-1.2,2.2-1.9c0.7-0.7,1.5-1.4,2.3-2.1c0.2-0.2,0.4-0.4,0.6-0.5c0.1-0.1,0.2-0.2,0.3-0.3
		l0.3-0.3c0.4-0.4,0.8-0.8,1.1-1.2c0.8-0.8,1.6-1.6,2.3-2.4c3.1-3.3,6.2-7.2,9.1-11.7c2.9-4.4,5.5-9.4,7.8-14.9
		c1.1-2.7,2.1-5.6,3-8.6l0.2-0.6c0.1-0.2,0.1-0.4,0.2-0.6c0.1-0.4,0.2-0.8,0.3-1.1c0.2-0.8,0.4-1.5,0.6-2.3c0.2-0.8,0.3-1.6,0.5-2.3
		c0.1-0.4,0.2-0.8,0.2-1.2c0.1-0.4,0.2-0.8,0.2-1.2c1.1-6.4,1.6-13.2,1.2-20.2l0-0.7c0-0.2,0-0.4-0.1-0.7c0-0.4-0.1-0.9-0.1-1.3
		c-0.1-0.9-0.1-1.8-0.2-2.6c-0.1-0.9-0.2-1.8-0.4-2.7c-0.1-0.4-0.1-0.9-0.2-1.3c-0.1-0.4-0.2-0.9-0.2-1.3c-0.2-0.9-0.3-1.8-0.5-2.7
		c-0.1-0.5-0.2-0.9-0.3-1.3c-0.1-0.4-0.2-0.9-0.3-1.3c-0.1-0.4-0.2-0.9-0.3-1.3l-0.2-0.7l-0.2-0.7c-0.3-0.9-0.5-1.8-0.8-2.7
		c-0.2-0.9-0.6-1.8-0.9-2.7c-0.3-0.9-0.6-1.8-0.9-2.7c-0.4-0.9-0.7-1.7-1.1-2.6c-0.2-0.4-0.4-0.9-0.5-1.3c-0.2-0.4-0.4-0.9-0.6-1.3
		c-0.4-0.9-0.8-1.7-1.2-2.6l-0.2-0.3l-0.2-0.3l-0.3-0.6c-0.2-0.4-0.5-0.8-0.7-1.3c-0.9-1.7-1.9-3.4-2.9-5c-2.1-3.3-4.4-6.5-6.9-9.6
		c-0.3-0.4-0.6-0.8-1-1.2l-0.2-0.3l-0.3-0.3l-0.5-0.6c-0.7-0.7-1.4-1.5-2-2.2c-0.7-0.7-1.4-1.4-2.1-2.1c-0.4-0.4-0.7-0.7-1.1-1.1
		c-0.4-0.3-0.8-0.7-1.1-1c-6-5.5-12.9-10.2-20.3-13.9c-0.9-0.5-1.9-0.9-2.8-1.3l-0.4-0.2l-0.4-0.2l-0.7-0.3l-1.5-0.6
		c-0.5-0.2-1-0.4-1.5-0.6l-1.5-0.5l-1.5-0.5l-0.7-0.3c-0.2-0.1-0.5-0.2-0.8-0.2c-1-0.3-2-0.6-3-0.9c-0.5-0.2-1-0.3-1.5-0.4l-1.5-0.4
		c-0.5-0.1-1-0.3-1.5-0.4l-1.6-0.3l-1.6-0.3l-0.8-0.2c-0.3-0.1-0.5-0.1-0.8-0.1c-1.1-0.2-2.1-0.3-3.2-0.5l-0.4-0.1l-0.4,0L109,8.4
		l-1.6-0.2c-0.5-0.1-1.1-0.1-1.6-0.2L104.2,8l-1.6-0.1l-0.8,0c-0.3,0-0.5,0-0.8,0c-1.1,0-2.1,0-3.2,0l-0.4,0l-0.4,0l-0.8,0l-1.6,0.1
		c-0.5,0-1.1,0-1.6,0.1l-1.6,0.1l-1.6,0.1l-0.8,0.1c-0.3,0-0.5,0.1-0.8,0.1c-1.1,0.1-2.1,0.3-3.2,0.4l-0.4,0.1L84.1,9l-0.8,0.2
		l-1.6,0.3l-1.6,0.3l-1.6,0.4L77,10.5c-0.5,0.1-1.1,0.2-1.6,0.4l-3.1,0.9c-0.3,0.1-0.5,0.1-0.8,0.2l-0.8,0.3l-1.5,0.5l-1.5,0.5
		c-0.3,0.1-0.5,0.2-0.8,0.3L66.2,14l-3,1.2l-2.9,1.4l-0.7,0.3c-0.2,0.1-0.5,0.2-0.7,0.4L57.4,18l-1.4,0.8l-0.7,0.4
		c-0.2,0.1-0.5,0.3-0.7,0.4l-2.8,1.7c-0.5,0.3-0.9,0.6-1.4,0.9L49,23.1L47.7,24l-1.3,1l-1.3,1l-0.6,0.5l-0.3,0.2l-0.3,0.3
		c-0.8,0.7-1.7,1.4-2.5,2.1c-0.2,0.2-0.4,0.3-0.6,0.5L40.1,30l-1.2,1.1l-1.2,1.1c-0.4,0.4-0.8,0.8-1.1,1.1l-1.1,1.1L34.9,35
		l-0.3,0.3l-0.3,0.3c-0.7,0.8-1.4,1.6-2.2,2.4c-0.2,0.2-0.4,0.4-0.5,0.6l-0.5,0.6l-1,1.2l-1,1.2c-0.3,0.4-0.6,0.9-1,1.3l-1,1.3
		l-0.5,0.6l-0.2,0.3l-0.2,0.3c-0.6,0.9-1.2,1.8-1.8,2.7c-0.1,0.2-0.3,0.4-0.4,0.7l-0.4,0.7L22.8,51L22,52.4
		c-0.3,0.5-0.5,0.9-0.8,1.4l-0.7,1.4c-0.2,0.5-0.5,0.9-0.7,1.4c-0.5,1-0.9,1.9-1.4,2.9c-0.1,0.2-0.2,0.5-0.3,0.7l-0.3,0.7l-0.6,1.5
		l-0.6,1.5c-0.2,0.5-0.4,1-0.5,1.5l-0.5,1.5l-0.3,0.7L15,67.9l-0.1,0.4c-0.3,1-0.6,2-0.9,3c-2.3,8-3.5,16.3-3.5,24.4
		c0,0.5,0,1,0,1.5c0,0.5,0,1,0.1,1.5c0,1,0.1,2,0.1,3c0.1,1,0.2,2,0.3,3l0.1,0.7l0,0.4l0.1,0.4c0.1,0.5,0.1,1,0.2,1.5
		c0.5,4,1.4,7.8,2.3,11.6c0.6,1.9,1.1,3.8,1.7,5.6c0.2,0.5,0.3,0.9,0.5,1.4l0.2,0.7l0.1,0.3l0.1,0.3c0.4,0.9,0.7,1.8,1.1,2.7
		c0.2,0.4,0.4,0.9,0.5,1.3c0.2,0.4,0.4,0.9,0.6,1.3c0.4,0.9,0.8,1.7,1.2,2.6c0.4,0.8,0.9,1.7,1.3,2.5c0.4,0.8,0.9,1.7,1.4,2.4
		c0.5,0.8,1,1.6,1.4,2.4l0.4,0.6l0.4,0.6c0.3,0.4,0.5,0.8,0.8,1.1c0.3,0.4,0.5,0.8,0.8,1.1c0.3,0.4,0.5,0.8,0.8,1.1
		c0.5,0.7,1.1,1.5,1.6,2.2c0.3,0.4,0.5,0.7,0.8,1.1c0.3,0.3,0.6,0.7,0.9,1c0.6,0.7,1.1,1.4,1.7,2.1c0.6,0.7,1.2,1.3,1.8,2
		c0.3,0.3,0.6,0.7,0.9,1c0.2,0.2,0.3,0.3,0.4,0.5l0.5,0.5c4.9,5,10.2,9.3,15.7,12.8c0.3,0.2,0.7,0.4,1,0.6c0.3,0.2,0.7,0.4,1,0.6
		c0.7,0.4,1.4,0.8,2.1,1.2c0.7,0.4,1.4,0.7,2.1,1.1c0.3,0.2,0.7,0.4,1,0.6c0.2,0.1,0.3,0.2,0.5,0.3l0.5,0.3c2.8,1.4,5.6,2.6,8.4,3.6
		c5.5,2.1,11,3.5,16.2,4.4c5.2,0.9,10.1,1.3,14.7,1.2c1.1,0,2.3,0,3.4-0.1c0.5,0,1.1,0,1.6-0.1l0.4,0c0.1,0,0.3,0,0.4,0
		c0.3,0,0.5,0,0.8-0.1c1-0.1,2.1-0.2,3.1-0.3c1-0.1,2-0.3,2.9-0.4c7.5-1.1,13.2-2.9,17-4.2c0.5-0.2,0.9-0.3,1.4-0.5
		c0.4-0.1,0.8-0.3,1.2-0.5c0.7-0.3,1.3-0.5,1.8-0.7C133.6,177,134,176.7,134,176.7l0.4,0.9c0,0-0.5,0.2-1.5,0.6
		c-0.5,0.2-1.1,0.4-1.8,0.7c-0.4,0.1-0.7,0.3-1.2,0.5c-0.4,0.2-0.9,0.3-1.4,0.5c-3.8,1.4-9.6,3.2-17.2,4.3c-0.9,0.1-1.9,0.3-2.9,0.4
		c-1,0.1-2,0.2-3.1,0.3c-0.3,0-0.5,0-0.8,0.1c-0.1,0-0.3,0-0.4,0c-0.1,0-0.3,0-0.4,0c-0.5,0-1.1,0-1.6,0.1c-1.1,0-2.2,0.1-3.4,0.1
		c-4.6,0-9.6-0.4-14.9-1.2c-5.3-0.9-10.8-2.3-16.4-4.4c-2.8-1-5.6-2.3-8.4-3.6l-0.5-0.3c-0.2-0.1-0.3-0.2-0.5-0.3
		c-0.4-0.2-0.7-0.4-1.1-0.6c-0.7-0.4-1.4-0.8-2.1-1.1c-0.7-0.4-1.4-0.8-2.1-1.2c-0.3-0.2-0.7-0.4-1-0.6c-0.3-0.2-0.7-0.4-1-0.6
		c-5.5-3.5-10.9-7.8-15.8-12.9l-0.5-0.5c-0.2-0.2-0.3-0.3-0.5-0.5c-0.3-0.3-0.6-0.7-0.9-1c-0.6-0.7-1.2-1.3-1.8-2
		c-0.6-0.7-1.1-1.4-1.7-2.1c-0.3-0.3-0.6-0.7-0.9-1c-0.3-0.4-0.5-0.7-0.8-1.1c-0.5-0.7-1.1-1.5-1.6-2.2c-0.3-0.4-0.5-0.8-0.8-1.1
		c-0.3-0.4-0.5-0.8-0.8-1.2c-0.3-0.4-0.5-0.8-0.8-1.2l-0.4-0.6l-0.4-0.6c-0.5-0.8-1-1.6-1.4-2.4c-0.5-0.8-0.9-1.6-1.4-2.5
		c-0.4-0.8-0.9-1.7-1.3-2.5c-0.4-0.9-0.8-1.7-1.2-2.6c-0.2-0.4-0.4-0.9-0.6-1.3c-0.2-0.4-0.4-0.9-0.6-1.3c-0.4-0.9-0.7-1.8-1.1-2.7
		l-0.1-0.3l-0.1-0.3l-0.2-0.7c-0.2-0.5-0.3-0.9-0.5-1.4c-0.7-1.8-1.2-3.7-1.8-5.6c-1-3.8-1.9-7.7-2.4-11.7c-0.1-0.5-0.1-1-0.2-1.5
		l-0.1-0.4l0-0.4l-0.1-0.8c-0.1-1-0.2-2-0.3-3c-0.1-1-0.1-2-0.1-3.1c0-0.5,0-1-0.1-1.5c0-0.5,0-1,0-1.5c0-8.2,1.2-16.5,3.6-24.6
		c0.3-1,0.6-2,0.9-3l0.1-0.4l0.1-0.4l0.3-0.7l0.5-1.5c0.2-0.5,0.4-1,0.5-1.5l0.6-1.5l0.6-1.5l0.3-0.7c0.1-0.2,0.2-0.5,0.3-0.7
		c0.5-1,0.9-1.9,1.4-2.9c0.2-0.5,0.5-0.9,0.7-1.4l0.8-1.4c0.3-0.5,0.5-0.9,0.8-1.4l0.8-1.4l0.8-1.4l0.4-0.7c0.1-0.2,0.3-0.5,0.4-0.7
		c0.6-0.9,1.2-1.8,1.8-2.7l0.2-0.3l0.2-0.3l0.5-0.7l1-1.3c0.3-0.4,0.6-0.9,1-1.3l1-1.3l1-1.3l0.5-0.6c0.2-0.2,0.4-0.4,0.5-0.6
		c0.7-0.8,1.5-1.6,2.2-2.4l0.3-0.3l0.3-0.3l0.6-0.6l1.2-1.2c0.4-0.4,0.8-0.8,1.2-1.1l1.2-1.1l1.2-1.1l0.6-0.5
		c0.2-0.2,0.4-0.4,0.6-0.5c0.8-0.7,1.7-1.4,2.5-2.1l0.3-0.3l0.3-0.2l0.7-0.5l1.3-1l1.3-1l1.4-0.9l1.4-0.9c0.5-0.3,0.9-0.6,1.4-0.9
		l2.8-1.7c0.2-0.1,0.5-0.3,0.7-0.4l0.7-0.4l1.4-0.8l1.4-0.8c0.2-0.1,0.5-0.2,0.7-0.4l0.7-0.3l3-1.4l3-1.2l0.8-0.3
		c0.2-0.1,0.5-0.2,0.8-0.3l1.5-0.5l1.5-0.5l0.8-0.3c0.3-0.1,0.5-0.2,0.8-0.2l3.1-0.9c0.5-0.2,1.1-0.3,1.6-0.4l1.6-0.4L80,8.8
		l1.6-0.3l1.6-0.3L84,8L84.4,8l0.4-0.1C85.9,7.8,87,7.6,88,7.5c0.3,0,0.5-0.1,0.8-0.1l0.8-0.1l1.6-0.1L92.9,7c0.5,0,1.1,0,1.6-0.1
		l1.6-0.1l0.8,0l0.4,0l0.4,0c1.1,0,2.2,0,3.3,0c0.3,0,0.5,0,0.8,0l0.8,0l1.6,0.1l1.6,0.1c0.5,0,1.1,0.1,1.6,0.2l1.6,0.2l0.8,0.1
		l0.4,0l0.4,0.1c1.1,0.2,2.1,0.3,3.2,0.5c0.3,0,0.5,0.1,0.8,0.1l0.8,0.2l1.6,0.3l1.6,0.3c0.5,0.1,1,0.3,1.6,0.4l1.6,0.4
		c0.5,0.1,1,0.3,1.5,0.4c1,0.3,2,0.6,3.1,0.9c0.3,0.1,0.5,0.2,0.8,0.2l0.8,0.3l1.5,0.5l1.5,0.5c0.5,0.2,1,0.4,1.5,0.6l1.5,0.6
		l0.7,0.3l0.4,0.2l0.4,0.2c1,0.5,1.9,0.9,2.9,1.4c7.6,3.8,14.5,8.5,20.6,14.1c0.4,0.3,0.8,0.7,1.1,1c0.4,0.4,0.7,0.7,1.1,1.1
		c0.7,0.7,1.5,1.4,2.2,2.2c0.7,0.8,1.4,1.5,2.1,2.2l0.5,0.6l0.3,0.3l0.2,0.3c0.3,0.4,0.6,0.8,1,1.2c2.6,3.1,4.9,6.4,7,9.7
		c1,1.7,2.1,3.4,2.9,5.1c0.2,0.4,0.5,0.9,0.7,1.3l0.3,0.6l0.2,0.3l0.2,0.3c0.4,0.9,0.8,1.8,1.2,2.6c0.2,0.4,0.4,0.9,0.6,1.3
		c0.2,0.4,0.4,0.9,0.5,1.3c0.4,0.9,0.7,1.8,1.1,2.7c0.3,0.9,0.6,1.8,0.9,2.7c0.3,0.9,0.6,1.8,0.9,2.7c0.3,0.9,0.5,1.8,0.8,2.7
		l0.2,0.7l0.2,0.7c0.1,0.5,0.2,0.9,0.3,1.4c0.1,0.5,0.2,0.9,0.3,1.4c0.1,0.5,0.2,0.9,0.3,1.3c0.2,0.9,0.3,1.8,0.5,2.7
		c0.1,0.4,0.2,0.9,0.2,1.3c0.1,0.4,0.1,0.9,0.2,1.4c0.1,0.9,0.2,1.8,0.4,2.7c0.1,0.9,0.2,1.8,0.2,2.7c0,0.4,0.1,0.9,0.1,1.3
		c0,0.2,0,0.4,0.1,0.7l0,0.7c0.4,7.1-0.1,13.9-1.3,20.4c-0.1,0.4-0.2,0.8-0.2,1.2c-0.1,0.4-0.2,0.8-0.2,1.2
		c-0.2,0.8-0.3,1.6-0.5,2.4c-0.2,0.8-0.4,1.5-0.6,2.3c-0.1,0.4-0.2,0.8-0.3,1.1c-0.1,0.2-0.1,0.4-0.2,0.6l-0.2,0.6
		c-0.9,3-1.9,5.9-3,8.7c-2.3,5.5-4.9,10.6-7.9,15c-2.9,4.5-6,8.4-9.2,11.8c-0.8,0.9-1.6,1.7-2.3,2.4c-0.4,0.4-0.8,0.8-1.2,1.2
		c-0.1,0.1-0.2,0.2-0.3,0.3c-0.1,0.1-0.2,0.2-0.3,0.3c-0.2,0.2-0.4,0.4-0.6,0.5c-0.8,0.7-1.5,1.4-2.3,2.1c-0.8,0.7-1.5,1.3-2.3,1.9
		c-5.9,4.8-11.2,7.9-14.8,9.8c-0.5,0.2-0.9,0.5-1.3,0.7c-0.4,0.2-0.8,0.4-1.1,0.6c-0.7,0.3-1.3,0.6-1.8,0.8c-1,0.4-1.5,0.7-1.5,0.7
		L134,176.7z"/>
	<path class="st1" d="M128.7,164.5c0,0,0.4-0.2,1.2-0.6c0.4-0.2,0.9-0.4,1.5-0.7c0.3-0.1,0.6-0.3,1-0.5c0.3-0.2,0.7-0.4,1.1-0.6
		c3.1-1.6,7.5-4.1,12.4-8.2c0.6-0.5,1.3-1,1.9-1.6c0.6-0.6,1.3-1.2,1.9-1.8c0.2-0.2,0.3-0.3,0.5-0.5l0.3-0.2l0.2-0.2
		c0.3-0.3,0.6-0.6,1-1c0.6-0.7,1.3-1.3,2-2c2.6-2.8,5.2-6.1,7.7-9.9c2.4-3.8,4.7-8,6.6-12.6c1-2.3,1.8-4.8,2.6-7.3l0.1-0.5
		c0.1-0.2,0.1-0.3,0.1-0.5c0.1-0.3,0.2-0.6,0.2-1c0.2-0.6,0.3-1.3,0.5-1.9c0.2-0.7,0.3-1.3,0.4-2c0.1-0.3,0.1-0.7,0.2-1
		c0.1-0.3,0.2-0.7,0.2-1c1-5.4,1.4-11.2,1.1-17.1l0-0.6c0-0.2,0-0.4,0-0.6c0-0.4-0.1-0.7-0.1-1.1c-0.1-0.7-0.1-1.5-0.2-2.2
		c-0.1-0.7-0.2-1.5-0.3-2.3c-0.1-0.4-0.1-0.8-0.2-1.1c-0.1-0.4-0.1-0.7-0.2-1.1c-0.1-0.8-0.3-1.5-0.4-2.3c-0.1-0.4-0.2-0.8-0.3-1.1
		c-0.1-0.4-0.2-0.8-0.3-1.1c-0.1-0.4-0.2-0.8-0.3-1.1l-0.1-0.6l-0.2-0.6c-0.2-0.8-0.4-1.5-0.7-2.3c-0.2-0.8-0.5-1.5-0.7-2.3
		c-0.3-0.7-0.5-1.5-0.8-2.3c-0.3-0.7-0.6-1.5-0.9-2.2c-0.2-0.4-0.3-0.7-0.5-1.1c-0.2-0.4-0.3-0.7-0.5-1.1c-0.3-0.7-0.7-1.5-1-2.2
		l-0.1-0.3l-0.1-0.3l-0.3-0.5c-0.2-0.4-0.4-0.7-0.6-1.1c-0.7-1.5-1.6-2.9-2.5-4.3c-1.8-2.8-3.7-5.6-5.9-8.1c-0.3-0.3-0.5-0.7-0.8-1
		l-0.2-0.2l-0.2-0.2l-0.4-0.5c-0.6-0.6-1.1-1.3-1.7-1.9c-0.6-0.6-1.2-1.2-1.8-1.8c-0.3-0.3-0.6-0.6-0.9-0.9c-0.3-0.3-0.6-0.6-1-0.9
		c-5.1-4.7-10.9-8.6-17.3-11.8c-0.8-0.4-1.6-0.8-2.4-1.1l-0.3-0.1l-0.3-0.1l-0.6-0.3l-1.2-0.5c-0.4-0.2-0.8-0.3-1.2-0.5l-1.3-0.5
		l-1.3-0.5l-0.6-0.2c-0.2-0.1-0.4-0.1-0.6-0.2c-0.9-0.3-1.7-0.5-2.6-0.8c-0.4-0.1-0.9-0.2-1.3-0.4l-1.3-0.3
		c-0.4-0.1-0.9-0.2-1.3-0.3l-1.3-0.3l-1.3-0.3l-0.7-0.1c-0.2,0-0.4-0.1-0.7-0.1c-0.9-0.1-1.8-0.3-2.7-0.4l-0.3-0.1l-0.3,0l-0.7-0.1
		l-1.4-0.1c-0.5,0-0.9-0.1-1.4-0.1l-1.4-0.1l-1.4-0.1l-0.7,0c-0.2,0-0.5,0-0.7,0c-0.9,0-1.8,0-2.7,0l-0.3,0l-0.3,0l-0.7,0l-1.4,0.1
		c-0.5,0-0.9,0-1.4,0.1l-1.4,0.1l-1.4,0.1l-0.7,0.1c-0.2,0-0.5,0.1-0.7,0.1c-0.9,0.1-1.8,0.3-2.7,0.4l-0.3,0l-0.3,0.1l-0.7,0.1
		l-1.4,0.3L83,22.8l-1.3,0.3l-1.3,0.3c-0.4,0.1-0.9,0.2-1.3,0.3l-2.6,0.8c-0.2,0.1-0.4,0.1-0.7,0.2L75,25l-1.3,0.5l-1.3,0.5
		c-0.2,0.1-0.4,0.2-0.6,0.2l-0.6,0.3l-2.6,1l-2.5,1.2l-0.6,0.3c-0.2,0.1-0.4,0.2-0.6,0.3l-1.2,0.7l-1.2,0.6l-0.6,0.3
		c-0.2,0.1-0.4,0.2-0.6,0.4l-2.4,1.4c-0.4,0.2-0.8,0.5-1.2,0.8l-1.1,0.8l-1.1,0.8l-1.1,0.8l-1.1,0.8l-0.6,0.4l-0.3,0.2l-0.3,0.2
		c-0.7,0.6-1.4,1.2-2.1,1.7c-0.2,0.1-0.4,0.3-0.5,0.4L49,40l-1,0.9l-1,0.9c-0.3,0.3-0.6,0.6-1,1l-1,1l-0.5,0.5l-0.2,0.2l-0.2,0.3
		c-0.6,0.7-1.2,1.4-1.8,2c-0.2,0.2-0.3,0.3-0.5,0.5l-0.4,0.5l-0.9,1.1l-0.9,1.1c-0.3,0.4-0.5,0.7-0.8,1.1L38,52.1l-0.4,0.5l-0.2,0.3
		l-0.2,0.3c-0.5,0.8-1,1.5-1.5,2.3c-0.1,0.2-0.3,0.4-0.4,0.6L35,56.6l-0.7,1.2L33.6,59c-0.2,0.4-0.4,0.8-0.6,1.2l-0.6,1.2
		c-0.2,0.4-0.4,0.8-0.6,1.2c-0.4,0.8-0.8,1.6-1.2,2.4c-0.1,0.2-0.2,0.4-0.3,0.6L30,66.2l-0.5,1.2L29,68.7c-0.2,0.4-0.3,0.8-0.5,1.3
		L28,71.2l-0.2,0.6l-0.1,0.3l-0.1,0.3c-0.3,0.9-0.5,1.7-0.8,2.5c-2,6.8-3,13.8-3,20.7c0,0.4,0,0.9,0,1.3c0,0.4,0,0.9,0.1,1.3
		c0,0.9,0.1,1.7,0.1,2.6c0.1,0.9,0.1,1.7,0.2,2.5l0.1,0.6l0,0.3l0,0.3c0.1,0.4,0.1,0.8,0.2,1.3c0.4,3.4,1.2,6.6,2,9.8
		c0.5,1.6,0.9,3.2,1.5,4.7c0.1,0.4,0.3,0.8,0.4,1.2l0.2,0.6l0.1,0.3l0.1,0.3c0.3,0.8,0.6,1.5,0.9,2.3c0.2,0.4,0.3,0.8,0.5,1.1
		c0.2,0.4,0.3,0.7,0.5,1.1c0.3,0.7,0.7,1.5,1,2.2c0.4,0.7,0.8,1.4,1.1,2.1c0.4,0.7,0.7,1.4,1.2,2.1c0.4,0.7,0.8,1.4,1.2,2l0.3,0.5
		l0.3,0.5c0.2,0.3,0.4,0.6,0.7,1c0.2,0.3,0.4,0.6,0.6,1c0.2,0.3,0.4,0.7,0.7,1c0.5,0.6,0.9,1.2,1.4,1.8c0.2,0.3,0.5,0.6,0.7,0.9
		c0.2,0.3,0.5,0.6,0.7,0.9c0.5,0.6,1,1.2,1.4,1.7c0.5,0.6,1,1.1,1.5,1.7c0.3,0.3,0.5,0.6,0.8,0.8c0.1,0.1,0.2,0.3,0.4,0.4l0.4,0.4
		c4.2,4.2,8.7,7.8,13.3,10.8c0.3,0.2,0.6,0.4,0.9,0.5c0.3,0.2,0.6,0.4,0.9,0.5c0.6,0.3,1.2,0.7,1.7,1c0.6,0.3,1.2,0.6,1.8,0.9
		c0.3,0.2,0.6,0.3,0.9,0.5c0.1,0.1,0.3,0.2,0.4,0.2l0.4,0.2c2.4,1.2,4.7,2.2,7.1,3.1c4.7,1.8,9.3,2.9,13.8,3.7
		c4.4,0.7,8.6,1.1,12.5,1c1,0,1.9,0,2.8-0.1c0.5,0,0.9,0,1.4-0.1l0.3,0l0.3,0c0.2,0,0.4,0,0.7-0.1c0.9-0.1,1.7-0.2,2.6-0.2
		c0.8-0.1,1.7-0.2,2.4-0.3c6.4-0.9,11.2-2.4,14.5-3.6c0.4-0.1,0.8-0.3,1.1-0.4c0.4-0.1,0.7-0.3,1-0.4c0.6-0.2,1.1-0.5,1.5-0.6
		C128.3,164.7,128.7,164.5,128.7,164.5l0.4,0.9c0,0-0.4,0.2-1.3,0.5c-0.4,0.2-0.9,0.4-1.6,0.6c-0.3,0.1-0.6,0.3-1,0.4
		c-0.4,0.1-0.8,0.3-1.2,0.4c-3.3,1.2-8.2,2.7-14.6,3.6c-0.8,0.1-1.6,0.2-2.5,0.3c-0.8,0.1-1.7,0.1-2.6,0.2c-0.2,0-0.4,0-0.7,0.1
		l-0.3,0l-0.3,0c-0.5,0-0.9,0-1.4,0.1c-0.9,0-1.9,0.1-2.9,0.1c-3.9,0-8.2-0.3-12.6-1.1c-4.5-0.8-9.2-2-13.9-3.7
		c-2.4-0.9-4.8-1.9-7.2-3.1l-0.5-0.2c-0.2-0.1-0.3-0.2-0.4-0.2c-0.3-0.2-0.6-0.3-0.9-0.5c-0.6-0.3-1.2-0.6-1.8-1
		c-0.6-0.3-1.2-0.7-1.8-1.1c-0.3-0.2-0.6-0.4-0.9-0.5c-0.3-0.2-0.6-0.3-0.9-0.5c-4.7-3-9.3-6.7-13.5-11l-0.4-0.4
		c-0.1-0.1-0.3-0.3-0.4-0.4c-0.3-0.3-0.5-0.6-0.8-0.8c-0.5-0.6-1-1.1-1.5-1.7c-0.5-0.6-1-1.2-1.5-1.8c-0.2-0.3-0.5-0.6-0.7-0.9
		c-0.2-0.3-0.5-0.6-0.7-0.9c-0.5-0.6-0.9-1.2-1.4-1.9c-0.2-0.3-0.4-0.6-0.7-1c-0.2-0.3-0.4-0.7-0.7-1c-0.2-0.3-0.4-0.7-0.7-1
		l-0.3-0.5l-0.3-0.5c-0.4-0.7-0.8-1.4-1.2-2c-0.4-0.7-0.8-1.4-1.2-2.1c-0.4-0.7-0.8-1.4-1.1-2.1c-0.3-0.7-0.7-1.5-1-2.2
		c-0.2-0.4-0.3-0.7-0.5-1.1c-0.2-0.4-0.3-0.8-0.5-1.1c-0.3-0.8-0.6-1.5-0.9-2.3l-0.1-0.3l-0.1-0.3l-0.2-0.6
		c-0.1-0.4-0.3-0.8-0.4-1.2c-0.6-1.6-1-3.2-1.5-4.8c-0.8-3.2-1.6-6.6-2-10c-0.1-0.4-0.1-0.8-0.2-1.3l0-0.3l0-0.3l-0.1-0.6
		c-0.1-0.9-0.2-1.7-0.2-2.6c-0.1-0.9-0.1-1.7-0.1-2.6c0-0.4,0-0.9-0.1-1.3c0-0.4,0-0.9,0-1.3c0-7,1-14.1,3-20.9
		c0.3-0.9,0.5-1.7,0.8-2.6l0.1-0.3l0.1-0.3l0.2-0.6l0.5-1.3c0.2-0.4,0.3-0.9,0.5-1.3l0.5-1.3l0.5-1.3l0.3-0.6
		c0.1-0.2,0.2-0.4,0.3-0.6c0.4-0.8,0.8-1.6,1.2-2.5c0.2-0.4,0.4-0.8,0.6-1.2l0.6-1.2c0.2-0.4,0.4-0.8,0.6-1.2l0.7-1.2l0.7-1.2
		l0.3-0.6c0.1-0.2,0.3-0.4,0.4-0.6c0.5-0.8,1-1.5,1.5-2.3l0.2-0.3l0.2-0.3l0.4-0.6l0.8-1.1c0.3-0.4,0.5-0.7,0.8-1.1l0.9-1.1l0.9-1.1
		l0.4-0.5c0.1-0.2,0.3-0.3,0.5-0.5c0.6-0.7,1.2-1.4,1.8-2.1l0.2-0.3l0.2-0.2l0.5-0.5l1-1c0.3-0.3,0.6-0.7,1-1l1-0.9l1-0.9l0.5-0.5
		c0.2-0.2,0.4-0.3,0.5-0.4c0.7-0.6,1.4-1.2,2.1-1.8l0.3-0.2l0.3-0.2l0.6-0.4l1.1-0.8l1.1-0.8l1.2-0.8l1.2-0.8
		c0.4-0.3,0.8-0.5,1.2-0.8l2.4-1.4c0.2-0.1,0.4-0.2,0.6-0.4l0.6-0.3l1.2-0.7l1.2-0.7c0.2-0.1,0.4-0.2,0.6-0.3l0.6-0.3l2.5-1.2
		l2.6-1.1l0.6-0.3c0.2-0.1,0.4-0.2,0.7-0.3l1.3-0.5l1.3-0.5l0.7-0.2c0.2-0.1,0.4-0.1,0.7-0.2l2.7-0.8c0.4-0.1,0.9-0.2,1.3-0.3
		l1.4-0.3l1.4-0.3l1.4-0.3l1.4-0.3l0.7-0.1l0.3-0.1l0.3,0c0.9-0.1,1.8-0.3,2.8-0.4c0.2,0,0.5-0.1,0.7-0.1l0.7-0.1l1.4-0.1l1.4-0.1
		c0.5,0,0.9,0,1.4-0.1l1.4-0.1l0.7,0l0.3,0l0.3,0c0.9,0,1.8,0,2.8,0c0.2,0,0.5,0,0.7,0l0.7,0l1.4,0.1l1.4,0.1c0.5,0,0.9,0.1,1.4,0.1
		l1.4,0.1l0.7,0.1l0.3,0l0.3,0.1c0.9,0.1,1.8,0.3,2.7,0.4c0.2,0,0.5,0.1,0.7,0.1l0.7,0.1l1.3,0.3l1.3,0.3c0.4,0.1,0.9,0.2,1.3,0.3
		l1.3,0.3c0.4,0.1,0.9,0.2,1.3,0.4c0.9,0.3,1.7,0.5,2.6,0.8c0.2,0.1,0.4,0.1,0.6,0.2l0.6,0.2l1.3,0.5l1.3,0.5
		c0.4,0.2,0.8,0.3,1.3,0.5l1.2,0.5l0.6,0.3l0.3,0.1l0.3,0.1c0.8,0.4,1.6,0.8,2.4,1.2c6.4,3.2,12.3,7.2,17.5,12
		c0.3,0.3,0.6,0.6,1,0.9c0.3,0.3,0.6,0.6,0.9,0.9c0.6,0.6,1.2,1.2,1.8,1.8c0.6,0.6,1.2,1.3,1.7,1.9l0.4,0.5l0.2,0.2l0.2,0.2
		c0.3,0.3,0.5,0.7,0.8,1c2.2,2.6,4.1,5.4,6,8.2c0.9,1.4,1.8,2.9,2.5,4.3c0.2,0.4,0.4,0.7,0.6,1.1l0.3,0.5l0.1,0.3l0.1,0.3
		c0.4,0.7,0.7,1.5,1,2.2c0.2,0.4,0.4,0.7,0.5,1.1c0.2,0.4,0.3,0.8,0.5,1.1c0.3,0.8,0.6,1.5,0.9,2.3c0.3,0.8,0.5,1.5,0.8,2.3
		c0.3,0.8,0.6,1.5,0.8,2.3c0.2,0.8,0.4,1.5,0.7,2.3l0.2,0.6l0.1,0.6c0.1,0.4,0.2,0.8,0.3,1.2c0.1,0.4,0.2,0.8,0.3,1.1
		c0.1,0.4,0.2,0.8,0.3,1.1c0.1,0.8,0.3,1.5,0.4,2.3c0.1,0.4,0.2,0.8,0.2,1.1c0.1,0.4,0.1,0.8,0.2,1.1c0.1,0.8,0.2,1.5,0.3,2.3
		c0.1,0.8,0.1,1.5,0.2,2.3c0,0.4,0.1,0.8,0.1,1.1c0,0.2,0,0.4,0,0.6l0,0.6c0.3,6-0.1,11.8-1.1,17.3c0,0.3-0.1,0.7-0.2,1
		c-0.1,0.3-0.1,0.7-0.2,1c-0.1,0.7-0.3,1.4-0.4,2c-0.2,0.7-0.3,1.3-0.5,2c-0.1,0.3-0.2,0.7-0.3,1c0,0.2-0.1,0.3-0.1,0.5l-0.1,0.5
		c-0.8,2.6-1.6,5-2.6,7.4c-1.9,4.7-4.2,9-6.7,12.8c-2.5,3.8-5.1,7.2-7.8,10c-0.6,0.7-1.3,1.4-2,2.1c-0.3,0.3-0.7,0.7-1,1l-0.2,0.2
		l-0.3,0.2c-0.2,0.2-0.3,0.3-0.5,0.5c-0.7,0.6-1.3,1.2-1.9,1.8c-0.7,0.5-1.3,1.1-1.9,1.6c-5,4.1-9.5,6.7-12.6,8.3
		c-0.4,0.2-0.7,0.4-1.1,0.6c-0.3,0.2-0.7,0.3-1,0.5c-0.6,0.3-1.1,0.5-1.5,0.7c-0.8,0.4-1.2,0.6-1.2,0.6L128.7,164.5z"/>
	<path class="st1" d="M89,161.7c0,0,0.1,0,0.4,0.1c0.1,0,0.3,0.1,0.5,0.1c0.2,0,0.4,0,0.7,0.1c1,0.1,2.5,0.3,4.2,0.4
		c0.4,0,0.9,0.1,1.4,0.1c0.2,0,0.5,0,0.7,0c0.2,0,0.5,0,0.7,0c1,0,2,0.1,3.1,0c0.5,0,1.1,0,1.7-0.1l0.4,0c0.1,0,0.3,0,0.4,0
		c0.3,0,0.6,0,0.8-0.1c0.6,0,1.1-0.1,1.7-0.1c0.3,0,0.6-0.1,0.9-0.1l0.9-0.1c0.6-0.1,1.2-0.2,1.7-0.2c0.6-0.1,1.1-0.2,1.7-0.3
		c0.6-0.1,1.1-0.2,1.7-0.3c0.5-0.1,1.1-0.3,1.6-0.4c0.5-0.1,1.1-0.2,1.6-0.4c0.5-0.2,1-0.3,1.5-0.4c0.5-0.1,0.9-0.3,1.4-0.4
		c0.1,0,0.2-0.1,0.3-0.1c0.1,0,0.2-0.1,0.3-0.1c0.2-0.1,0.4-0.2,0.6-0.2c0.8-0.3,1.6-0.6,2.3-0.8c0.7-0.3,1.2-0.5,1.7-0.7
		c1-0.4,1.5-0.6,1.5-0.6l1.7,4c0,0-0.6,0.2-1.6,0.6c-0.5,0.2-1.1,0.5-1.8,0.8c-0.7,0.2-1.5,0.5-2.4,0.8c-0.2,0.1-0.4,0.2-0.7,0.2
		c-0.1,0-0.2,0.1-0.3,0.1c-0.1,0-0.2,0.1-0.4,0.1c-0.5,0.1-1,0.3-1.5,0.4c-0.5,0.2-1,0.3-1.6,0.5c-0.5,0.1-1.1,0.3-1.7,0.4
		c-0.6,0.1-1.1,0.3-1.7,0.4c-0.6,0.1-1.2,0.2-1.8,0.3c-0.6,0.1-1.2,0.2-1.8,0.3c-0.6,0.1-1.2,0.2-1.8,0.2l-0.9,0.1
		c-0.3,0-0.6,0.1-0.9,0.1c-0.6,0.1-1.2,0.1-1.8,0.2c-0.3,0-0.6,0.1-0.9,0.1c-0.2,0-0.3,0-0.4,0l-0.4,0c-0.6,0-1.2,0-1.8,0.1
		c-1.2,0.1-2.3,0-3.3,0c-0.3,0-0.5,0-0.8,0c-0.3,0-0.5,0-0.8,0c-0.5,0-1-0.1-1.4-0.1c-1.9-0.1-3.4-0.3-4.5-0.4c-0.3,0-0.5,0-0.7-0.1
		c-0.2,0-0.4-0.1-0.5-0.1c-0.3,0-0.4-0.1-0.4-0.1L89,161.7z"/>
	<path class="st2" d="M118.5,32.5c0,0-0.2-0.1-0.7-0.2c-0.2-0.1-0.5-0.2-0.8-0.3c-0.3-0.1-0.7-0.2-1.1-0.3c-0.4-0.1-0.9-0.2-1.4-0.4
		c-0.3-0.1-0.5-0.1-0.8-0.2c-0.3-0.1-0.6-0.1-0.9-0.2c-0.6-0.1-1.2-0.3-1.9-0.4c-0.2,0-0.3-0.1-0.5-0.1c-0.2,0-0.3-0.1-0.5-0.1
		c-0.3-0.1-0.7-0.1-1.1-0.2c-1.4-0.3-3-0.4-4.7-0.6c-0.8,0-1.7-0.1-2.6-0.1c-0.2,0-0.4,0-0.7,0c-0.2,0-0.4,0-0.7,0
		c-0.4,0-0.9,0-1.4,0c-3.7,0-7.6,0.3-11.4,0.9L86,30.7l-0.7,0.1c-0.2,0-0.5,0.1-0.7,0.1c-0.9,0.2-1.9,0.5-2.8,0.7
		c-0.9,0.3-1.8,0.6-2.8,0.8c-0.2,0.1-0.5,0.1-0.7,0.2c-0.2,0.1-0.4,0.2-0.7,0.2c-0.4,0.2-0.9,0.3-1.3,0.5c-0.4,0.2-0.9,0.3-1.3,0.5
		c-0.4,0.2-0.8,0.3-1.2,0.5c-0.4,0.2-0.8,0.3-1.2,0.5c-0.2,0.1-0.4,0.2-0.6,0.2c-0.2,0.1-0.4,0.2-0.6,0.3c-0.8,0.4-1.5,0.7-2.2,1
		c-0.1,0-0.2,0.1-0.3,0.1l-0.3,0.1c-0.2,0.1-0.3,0.2-0.5,0.3c-0.3,0.2-0.7,0.4-1,0.5c-2.6,1.4-4.7,2.7-6.1,3.7
		c-0.2,0.1-0.3,0.2-0.5,0.3c-0.2,0.1-0.3,0.2-0.4,0.3c-0.3,0.2-0.5,0.4-0.7,0.5c-0.4,0.3-0.6,0.4-0.6,0.4l-2.6-3.5
		c0,0,0.2-0.2,0.6-0.4c0.2-0.1,0.4-0.3,0.7-0.5c0.1-0.1,0.3-0.2,0.5-0.3c0.2-0.1,0.4-0.2,0.5-0.4c1.5-1,3.7-2.5,6.5-3.9
		c0.3-0.2,0.7-0.4,1.1-0.6c0.2-0.1,0.4-0.2,0.5-0.3c0.1,0,0.2-0.1,0.3-0.2c0.1,0,0.2-0.1,0.3-0.1c0.8-0.4,1.6-0.7,2.4-1.1
		c0.2-0.1,0.4-0.2,0.6-0.3c0.2-0.1,0.4-0.2,0.6-0.3c0.4-0.2,0.9-0.3,1.3-0.5c0.4-0.2,0.9-0.4,1.3-0.6c0.4-0.2,0.9-0.3,1.4-0.5
		c0.5-0.2,0.9-0.3,1.4-0.5c0.2-0.1,0.5-0.2,0.7-0.3c0.2-0.1,0.5-0.1,0.7-0.2c1-0.3,1.9-0.6,2.9-0.9c1-0.2,2-0.5,3-0.7
		c0.3-0.1,0.5-0.1,0.8-0.2l0.8-0.1l1.5-0.3c4.1-0.7,8.3-1,12.2-1c0.5,0,1,0,1.5,0c0.2,0,0.5,0,0.7,0c0.2,0,0.5,0,0.7,0
		c0.9,0.1,1.9,0.1,2.8,0.2c1.8,0.2,3.5,0.3,5,0.6c0.4,0.1,0.8,0.1,1.1,0.2c0.2,0,0.4,0.1,0.5,0.1c0.2,0,0.4,0.1,0.5,0.1
		c0.7,0.1,1.4,0.3,2,0.4c0.3,0.1,0.6,0.1,0.9,0.2c0.3,0.1,0.6,0.2,0.8,0.2c0.5,0.1,1,0.3,1.5,0.4c0.4,0.1,0.8,0.2,1.2,0.3
		c0.3,0.1,0.6,0.2,0.9,0.3c0.5,0.1,0.7,0.2,0.7,0.2L118.5,32.5z"/>
	<path class="st1" d="M35.2,115.4c0,0,0,0.1,0.1,0.2c0.1,0.2,0.1,0.4,0.2,0.7c0.2,0.6,0.5,1.4,0.9,2.4c0.1,0.3,0.2,0.5,0.3,0.8
		c0.1,0.3,0.2,0.5,0.3,0.8c0.2,0.6,0.5,1.2,0.7,1.8c0.1,0.2,0.1,0.3,0.2,0.5c0.1,0.2,0.1,0.3,0.2,0.5c0.1,0.3,0.3,0.6,0.4,0.9
		c0.1,0.3,0.3,0.6,0.4,1l0.2,0.5l0.1,0.2l0.1,0.2c0.3,0.6,0.7,1.2,1,1.9c0.2,0.3,0.3,0.6,0.5,0.9c0.2,0.3,0.4,0.6,0.5,0.9
		c0.3,0.6,0.7,1.1,1,1.6c0.1,0.1,0.2,0.3,0.2,0.4c0.1,0.1,0.2,0.2,0.2,0.4c0.2,0.2,0.3,0.5,0.5,0.7c0.3,0.4,0.6,0.8,0.8,1.2
		c0.1,0.2,0.2,0.4,0.3,0.5c0.1,0.1,0.2,0.3,0.3,0.4c0.4,0.5,0.6,0.8,0.6,0.8l-3.5,2.6c0,0-0.2-0.3-0.6-0.8c-0.1-0.1-0.2-0.3-0.3-0.4
		c-0.1-0.2-0.2-0.3-0.4-0.5c-0.3-0.4-0.5-0.8-0.9-1.3c-0.2-0.2-0.3-0.5-0.5-0.7c-0.1-0.1-0.2-0.3-0.3-0.4c-0.1-0.1-0.2-0.3-0.2-0.4
		c-0.3-0.6-0.7-1.1-1-1.8c-0.2-0.3-0.4-0.6-0.6-0.9c-0.2-0.3-0.3-0.6-0.5-1c-0.3-0.7-0.7-1.3-1.1-2l-0.1-0.3l-0.1-0.3l-0.2-0.5
		c-0.2-0.3-0.3-0.7-0.5-1c-0.2-0.3-0.3-0.7-0.5-1c-0.1-0.2-0.2-0.3-0.2-0.5c-0.1-0.2-0.1-0.3-0.2-0.5c-0.3-0.7-0.5-1.3-0.8-1.9
		c-0.1-0.3-0.2-0.6-0.4-0.9c-0.1-0.3-0.2-0.6-0.3-0.8c-0.4-1.1-0.7-2-0.9-2.6c-0.1-0.3-0.2-0.6-0.2-0.7c0-0.2-0.1-0.3-0.1-0.3
		L35.2,115.4z"/>
	<path class="st1" d="M39.2,66.3c0,0-0.1,0.3-0.4,0.9c-0.1,0.3-0.3,0.6-0.5,1c-0.1,0.2-0.2,0.4-0.3,0.6c-0.1,0.2-0.2,0.5-0.3,0.7
		c-0.2,0.5-0.4,1-0.7,1.6c-0.1,0.3-0.3,0.6-0.4,0.9c-0.1,0.3-0.2,0.6-0.3,0.9c-0.2,0.6-0.5,1.3-0.7,1.9c-0.2,0.7-0.4,1.3-0.6,2
		c-0.1,0.3-0.2,0.7-0.3,1c-0.1,0.3-0.2,0.7-0.3,1c-0.2,0.7-0.3,1.3-0.5,2c-0.1,0.6-0.3,1.3-0.4,1.9c-0.1,0.3-0.1,0.6-0.2,0.9
		c-0.1,0.3-0.1,0.5-0.2,0.8c-0.2,1-0.3,1.9-0.4,2.5c-0.1,0.3-0.1,0.5-0.1,0.7c0,0.2,0,0.3,0,0.3l-4.3-0.5c0,0,0-0.1,0-0.3
		c0-0.2,0-0.4,0.1-0.8c0.1-0.6,0.3-1.6,0.4-2.7c0-0.3,0.1-0.6,0.2-0.9c0.1-0.3,0.1-0.6,0.2-0.9c0.1-0.6,0.3-1.3,0.4-2
		c0.2-0.7,0.4-1.4,0.6-2.1c0.1-0.4,0.2-0.7,0.3-1.1c0.1-0.4,0.2-0.7,0.3-1.1c0.2-0.7,0.4-1.4,0.7-2.2c0.3-0.7,0.5-1.4,0.7-2
		c0.1-0.3,0.2-0.7,0.3-1c0.1-0.3,0.3-0.6,0.4-0.9c0.3-0.6,0.5-1.2,0.7-1.7c0.1-0.3,0.2-0.5,0.3-0.7c0.1-0.2,0.2-0.5,0.3-0.7
		c0.2-0.4,0.4-0.8,0.5-1.1c0.3-0.6,0.4-0.9,0.4-0.9L39.2,66.3z"/>
	<path class="st1" d="M143.2,145.3c0,0,0.4-0.3,1-0.9c0.2-0.1,0.3-0.3,0.5-0.5c0.2-0.2,0.4-0.4,0.6-0.6c0.4-0.4,0.9-0.9,1.4-1.4
		c0.1-0.1,0.1-0.1,0.2-0.2c0.1-0.1,0.1-0.1,0.2-0.2c0.1-0.1,0.3-0.3,0.4-0.4c0.3-0.3,0.5-0.6,0.8-0.9c0.1-0.2,0.3-0.3,0.4-0.5
		c0.1-0.2,0.3-0.3,0.4-0.5c0.3-0.4,0.6-0.7,0.9-1.1c0.3-0.4,0.6-0.7,0.9-1.1c0.2-0.2,0.3-0.4,0.4-0.6c0.1-0.2,0.3-0.4,0.4-0.6
		c0.6-0.8,1.2-1.6,1.7-2.4c2.2-3.3,4.2-6.8,5.4-9.5c0.2-0.3,0.3-0.7,0.5-1c0.1-0.3,0.3-0.6,0.4-0.9c0.2-0.6,0.4-1,0.6-1.4
		c0.1-0.2,0.2-0.4,0.2-0.5c0.1-0.2,0.1-0.3,0.1-0.4c0.1-0.2,0.1-0.3,0.1-0.3l4.1,1.5c0,0,0,0.1-0.1,0.4c0,0.1-0.1,0.3-0.1,0.4
		c-0.1,0.2-0.2,0.4-0.2,0.6c-0.2,0.4-0.4,0.9-0.6,1.5c-0.1,0.3-0.2,0.6-0.4,1c-0.1,0.3-0.3,0.7-0.5,1c-1.3,2.9-3.3,6.6-5.7,10.1
		c-0.6,0.9-1.2,1.7-1.8,2.6c-0.2,0.2-0.3,0.4-0.5,0.6c-0.2,0.2-0.3,0.4-0.5,0.6c-0.3,0.4-0.6,0.8-1,1.2c-0.3,0.4-0.6,0.8-0.9,1.1
		c-0.1,0.2-0.3,0.4-0.5,0.5c-0.2,0.2-0.3,0.3-0.5,0.5c-0.3,0.3-0.6,0.7-0.9,1c-0.1,0.2-0.3,0.3-0.4,0.5c-0.1,0.1-0.1,0.2-0.2,0.2
		c-0.1,0.1-0.1,0.1-0.2,0.2c-0.6,0.6-1.1,1.1-1.5,1.5c-0.2,0.2-0.4,0.4-0.6,0.6c-0.2,0.2-0.4,0.4-0.6,0.5c-0.7,0.6-1.1,1-1.1,1
		L143.2,145.3z"/>
	<path class="st1" d="M135.2,40.5c0,0-0.2-0.1-0.5-0.4c-0.3-0.3-0.9-0.5-1.5-0.9c-0.3-0.2-0.6-0.4-1-0.6c-0.4-0.2-0.7-0.5-1.1-0.6
		c-0.8-0.4-1.6-0.9-2.5-1.3c-0.9-0.4-1.7-0.8-2.5-1.2c-0.1,0-0.2-0.1-0.3-0.1c-0.1,0-0.2-0.1-0.3-0.1c-0.2-0.1-0.4-0.2-0.6-0.2
		c-0.4-0.2-0.7-0.3-1.1-0.4c-0.3-0.1-0.6-0.3-0.9-0.4c-0.3-0.1-0.5-0.2-0.7-0.3c-0.4-0.1-0.6-0.2-0.6-0.2l1.5-4.1
		c0,0,0.2,0.1,0.7,0.2c0.2,0.1,0.5,0.2,0.8,0.3c0.3,0.1,0.6,0.3,1,0.4c0.4,0.1,0.7,0.3,1.1,0.5c0.2,0.1,0.4,0.2,0.6,0.3
		c0.1,0,0.2,0.1,0.3,0.1c0.1,0,0.2,0.1,0.3,0.2c0.9,0.4,1.8,0.9,2.7,1.3c0.9,0.5,1.8,1,2.6,1.4c0.4,0.2,0.8,0.5,1.2,0.7
		c0.4,0.2,0.7,0.4,1.1,0.6c0.7,0.4,1.2,0.7,1.6,1c0.4,0.2,0.6,0.4,0.6,0.4L135.2,40.5z"/>
	<path class="st1" d="M149.2,52.7c0,0,0,0-0.1-0.1c-0.1-0.1-0.2-0.2-0.3-0.4c-0.3-0.3-0.7-0.7-1.2-1.3c-0.2-0.3-0.5-0.6-0.8-0.9
		c-0.3-0.3-0.6-0.6-0.9-0.9c-0.3-0.3-0.6-0.6-1-1c-0.2-0.2-0.3-0.3-0.5-0.5c-0.2-0.2-0.4-0.3-0.5-0.5c-0.4-0.3-0.7-0.6-1.1-1
		c-0.2-0.2-0.3-0.3-0.5-0.5c-0.2-0.2-0.3-0.3-0.5-0.4c-0.7-0.6-1.3-1.1-1.9-1.5c-0.1-0.1-0.3-0.2-0.4-0.3c-0.1-0.1-0.3-0.2-0.4-0.3
		c-0.2-0.2-0.4-0.3-0.6-0.4c-0.3-0.2-0.5-0.4-0.5-0.4l2.6-3.5c0,0,0.2,0.1,0.6,0.4c0.2,0.1,0.4,0.3,0.6,0.5c0.1,0.1,0.3,0.2,0.4,0.3
		c0.1,0.1,0.3,0.2,0.4,0.3c0.6,0.5,1.3,1,2,1.6c0.2,0.1,0.4,0.3,0.5,0.5c0.2,0.2,0.4,0.3,0.5,0.5c0.4,0.3,0.7,0.7,1.1,1
		c0.2,0.2,0.4,0.3,0.6,0.5c0.2,0.2,0.4,0.4,0.5,0.5c0.4,0.4,0.7,0.7,1,1c0.3,0.3,0.7,0.6,1,1c0.3,0.3,0.6,0.6,0.8,0.9
		c0.5,0.6,0.9,1,1.2,1.4c0.2,0.2,0.3,0.3,0.3,0.4c0.1,0.1,0.1,0.1,0.1,0.1L149.2,52.7z"/>
	<path class="st1" d="M165.1,93.2c0,0,0-0.2,0-0.7c0-0.2,0-0.5,0-0.8c0-0.3-0.1-0.6-0.1-1c-0.1-0.7-0.1-1.5-0.2-2.4
		c-0.1-0.9-0.3-1.8-0.4-2.8c-0.3-1.9-0.7-3.7-1-5.1c-0.2-0.7-0.3-1.3-0.4-1.7c-0.1-0.4-0.2-0.6-0.2-0.6l4.2-1.2c0,0,0.1,0.2,0.2,0.7
		c0.1,0.4,0.2,1.1,0.4,1.8c0.4,1.5,0.7,3.5,1.1,5.5c0.1,1,0.3,2,0.4,3c0.1,0.9,0.2,1.8,0.2,2.6c0,0.4,0.1,0.7,0.1,1
		c0,0.3,0,0.6,0,0.8c0,0.4,0,0.7,0,0.7L165.1,93.2z"/>
	<path class="st1" d="M162.3,115.1c0,0,0.1-0.2,0.2-0.6c0.1-0.4,0.3-1,0.4-1.7c0.1-0.4,0.2-0.7,0.3-1.1c0.1-0.2,0.1-0.4,0.2-0.6
		c0-0.2,0.1-0.4,0.1-0.6c0.2-0.9,0.4-1.8,0.6-2.8c0.1-1,0.3-1.9,0.4-2.8c0.1-0.9,0.2-1.7,0.3-2.4c0-0.4,0.1-0.7,0.1-1
		c0-0.3,0-0.5,0-0.7c0-0.4,0-0.7,0-0.7l4.3,0.3c0,0,0,0.2,0,0.7c0,0.2,0,0.5,0,0.8c0,0.3-0.1,0.7-0.1,1c-0.1,0.8-0.2,1.6-0.3,2.6
		c-0.2,0.9-0.3,1.9-0.5,3c-0.2,1-0.4,2-0.6,2.9c0,0.2-0.1,0.5-0.1,0.7c-0.1,0.2-0.1,0.4-0.2,0.7c-0.1,0.4-0.2,0.8-0.3,1.2
		c-0.2,0.7-0.3,1.4-0.5,1.8c-0.1,0.4-0.2,0.7-0.2,0.7L162.3,115.1z"/>
	<path class="st3" d="M92.8,181.2c0,0,0.3,0,0.8,0.1c0.5,0,1.3,0.1,2.2,0.1c0.9,0,2,0,3.1,0c0.3,0,0.6,0,0.9,0c0.3,0,0.6,0,0.9,0
		c0.6,0,1.2,0,1.8-0.1c0.3,0,0.6,0,0.9,0c0.2,0,0.3,0,0.5,0c0.2,0,0.3,0,0.5,0c0.6-0.1,1.2-0.1,1.8-0.2c0.6-0.1,1.1-0.1,1.6-0.1
		c0.3,0,0.5-0.1,0.8-0.1c0.2,0,0.5-0.1,0.7-0.1c0.9-0.1,1.7-0.2,2.2-0.3c0.3,0,0.5-0.1,0.6-0.1c0.1,0,0.2,0,0.2,0l-1.1-6.4
		c0,0-0.1,0-0.2,0c-0.1,0-0.3,0-0.6,0.1c-0.5,0.1-1.2,0.2-2,0.3c-0.2,0-0.4,0.1-0.7,0.1c-0.2,0-0.5,0.1-0.7,0.1
		c-0.5,0-1,0.1-1.5,0.1c-0.5,0-1.1,0.1-1.6,0.1c-0.1,0-0.3,0-0.4,0l-0.4,0c-0.3,0-0.6,0-0.8,0c-0.6,0-1.1,0-1.7,0.1
		c-0.3,0-0.6,0-0.8,0c-0.3,0-0.5,0-0.8,0c-1.1,0-2.1,0-2.9,0c-0.8,0-1.6-0.1-2-0.1c-0.5,0-0.8,0-0.8,0L92.8,181.2L92.8,181.2z
		 M91.8,182l0.7-8.3c0,0,1.2,0.1,3.1,0.2c1.8,0,4.3,0.1,6.7,0c1.2,0,2.4-0.2,3.6-0.3c0.6-0.1,1.1-0.1,1.6-0.2c0.5-0.1,1-0.1,1.5-0.2
		c0.9-0.1,1.7-0.2,2.2-0.3c0.5-0.1,0.8-0.2,0.8-0.2l1.4,8.2c0,0-0.3,0.1-0.9,0.2c-0.6,0.1-1.4,0.2-2.4,0.3c-0.5,0.1-1.1,0.1-1.6,0.2
		c-0.6,0.1-1.2,0.1-1.8,0.2c-1.3,0.1-2.6,0.3-4,0.3c-2.7,0.1-5.4,0.1-7.5,0C93.1,182.1,91.8,182,91.8,182z"/>
	<path class="st4" d="M77.8,156.5c0,0,0.1,0,0.3,0.1c0.2,0.1,0.6,0.2,1,0.3c0.4,0.1,0.9,0.3,1.5,0.5c0.1,0,0.3,0.1,0.5,0.1
		c0.2,0,0.3,0.1,0.5,0.1c0.3,0.1,0.7,0.2,1.1,0.3c0.7,0.2,1.5,0.4,2.4,0.6c0.4,0.1,0.9,0.2,1.3,0.3c0.4,0.1,0.9,0.2,1.4,0.3
		c0.5,0.1,0.9,0.1,1.4,0.2c0.2,0,0.5,0.1,0.7,0.1l0.4,0.1l0.4,0c0.5,0.1,1,0.1,1.5,0.2c0.3,0,0.5,0.1,0.8,0.1c0.2,0,0.5,0.1,0.8,0.1
		c1,0,2,0.1,3,0.2c1,0,2,0,2.9,0c0.9,0,1.9-0.1,2.7-0.1c0.4,0,0.9-0.1,1.3-0.1c0.4,0,0.8-0.1,1.2-0.1c0.4,0,0.7-0.1,1.1-0.1
		c0.3,0,0.7-0.1,1-0.1c0.6-0.1,1.1-0.2,1.6-0.2c0.2,0,0.4-0.1,0.6-0.1c0.2,0,0.3-0.1,0.4-0.1c0.2,0,0.4-0.1,0.4-0.1l1.4,8.2
		c0,0-0.1,0-0.4,0.1c-0.1,0-0.3,0.1-0.5,0.1c-0.2,0-0.4,0.1-0.7,0.1c-0.5,0.1-1.1,0.2-1.8,0.2c-0.3,0-0.7,0.1-1.1,0.2
		c-0.4,0-0.8,0.1-1.2,0.1c-0.4,0-0.9,0.1-1.3,0.1c-0.5,0-0.9,0.1-1.4,0.1c-1,0-2,0.1-3.1,0.1c-1.1,0-2.2,0-3.3,0
		c-1.1-0.1-2.3-0.1-3.4-0.2c-0.3,0-0.6,0-0.9-0.1c-0.3,0-0.6-0.1-0.8-0.1c-0.6-0.1-1.1-0.1-1.7-0.2l-0.4,0l-0.4-0.1
		c-0.3,0-0.5-0.1-0.8-0.1c-0.5-0.1-1.1-0.2-1.6-0.3c-0.5-0.1-1-0.2-1.5-0.3c-0.5-0.1-1-0.2-1.5-0.3c-1-0.2-1.9-0.4-2.7-0.6
		c-0.4-0.1-0.8-0.2-1.2-0.3c-0.2,0-0.4-0.1-0.5-0.1c-0.2-0.1-0.3-0.1-0.5-0.2c-0.7-0.2-1.2-0.4-1.7-0.5c-0.5-0.1-0.9-0.3-1.1-0.3
		c-0.2-0.1-0.4-0.1-0.4-0.1L77.8,156.5z"/>
	<path class="st5" d="M131.8,150.7c0,0,0.2-0.1,0.5-0.3c0.2-0.1,0.4-0.2,0.6-0.3c0.2-0.1,0.4-0.3,0.6-0.4c0.8-0.6,1.7-1.1,1.7-1.1
		l4.8,6.9c0,0-0.9,0.6-1.9,1.3c-0.2,0.2-0.5,0.3-0.7,0.5c-0.2,0.1-0.4,0.3-0.6,0.4c-0.4,0.2-0.6,0.4-0.6,0.4L131.8,150.7z"/>
	<path class="st6" d="M126.3,153.7c0,0,0.2-0.1,0.6-0.3c0.4-0.1,0.8-0.4,1.2-0.6c0.9-0.5,1.8-0.9,1.8-0.9l4.1,7.3c0,0-1,0.5-2,1.1
		c-0.5,0.3-1,0.5-1.4,0.7c-0.4,0.2-0.6,0.3-0.6,0.3L126.3,153.7z"/>
	<path class="st7" d="M61.8,173c0,0,0.3,0.1,0.8,0.4c0.5,0.2,1.2,0.6,2,0.9c0.8,0.4,1.8,0.8,2.9,1.2c1.1,0.4,2.2,0.8,3.4,1.2
		c0.6,0.2,1.2,0.4,1.7,0.6c0.6,0.2,1.1,0.4,1.7,0.5c1.1,0.4,2.1,0.6,3,0.8c0.9,0.2,1.6,0.4,2.2,0.5c0.5,0.1,0.8,0.2,0.8,0.2l1.4-6.4
		c0,0-0.3-0.1-0.8-0.2c-0.5-0.1-1.2-0.3-2-0.5c-0.8-0.2-1.8-0.4-2.8-0.8c-0.5-0.2-1-0.3-1.6-0.5c-0.5-0.2-1.1-0.3-1.6-0.5
		c-1.1-0.4-2.1-0.8-3.1-1.1c-1-0.4-1.9-0.8-2.7-1.1c-0.8-0.3-1.4-0.6-1.9-0.8c-0.4-0.2-0.7-0.3-0.7-0.3L61.8,173L61.8,173z
		 M60.5,173.4l3.7-7.5c0,0,0.3,0.1,0.8,0.4c0.5,0.2,1.2,0.6,2,0.9c0.9,0.4,1.8,0.8,2.9,1.2c0.1,0.1,0.3,0.1,0.4,0.2
		c0.1,0,0.3,0.1,0.4,0.2c0.3,0.1,0.6,0.2,0.8,0.3c0.6,0.2,1.1,0.4,1.7,0.6c0.6,0.2,1.2,0.4,1.7,0.6c0.6,0.2,1.1,0.4,1.7,0.5
		c0.3,0.1,0.5,0.2,0.8,0.2c0.3,0.1,0.5,0.1,0.8,0.2c0.5,0.1,1,0.3,1.4,0.4c0.4,0.1,0.9,0.2,1.2,0.3c0.4,0.1,0.7,0.1,0.9,0.2
		c0.5,0.1,0.8,0.2,0.8,0.2l-1.7,8.2c0,0-0.3-0.1-0.9-0.2c-0.3-0.1-0.6-0.1-1.1-0.2c-0.4-0.1-0.9-0.2-1.3-0.3c-0.5-0.1-1-0.3-1.6-0.4
		c-0.3-0.1-0.6-0.1-0.9-0.2c-0.3-0.1-0.6-0.2-0.9-0.3c-0.6-0.2-1.2-0.4-1.9-0.6c-0.6-0.2-1.3-0.4-1.9-0.6c-0.6-0.2-1.3-0.5-1.9-0.7
		c-0.3-0.1-0.6-0.2-0.9-0.3c-0.2-0.1-0.3-0.1-0.5-0.2c-0.2-0.1-0.3-0.1-0.4-0.2c-1.2-0.5-2.3-0.9-3.2-1.3c-0.9-0.4-1.7-0.8-2.2-1
		C60.9,173.6,60.5,173.4,60.5,173.4z"/>
	<path class="st8" d="M29.2,145.7c0,0,0.7,1,1.8,2.5c0.1,0.2,0.3,0.4,0.4,0.6c0.2,0.2,0.3,0.4,0.5,0.6c0.3,0.4,0.7,0.8,1.1,1.3
		c0.4,0.4,0.7,0.9,1.1,1.4c0.4,0.4,0.8,0.9,1.2,1.4c0.8,0.9,1.6,1.8,2.5,2.6c0.8,0.8,1.6,1.6,2.2,2.2c1.4,1.2,2.3,2.1,2.3,2.1
		l4.3-4.9c0,0-0.8-0.8-2.1-1.9c-0.6-0.6-1.3-1.3-2.1-2c-0.8-0.7-1.5-1.6-2.3-2.4c-0.4-0.4-0.8-0.8-1.1-1.2c-0.4-0.4-0.7-0.9-1-1.3
		c-0.3-0.4-0.7-0.8-1-1.2c-0.2-0.2-0.3-0.4-0.5-0.5c-0.1-0.2-0.3-0.4-0.4-0.5c-1-1.4-1.7-2.3-1.7-2.3L29.2,145.7L29.2,145.7z
		 M27.9,145.5l6.9-4.8c0,0,0,0.1,0.1,0.2c0.1,0.1,0.2,0.3,0.4,0.5c0.3,0.4,0.8,1,1.3,1.8c0.3,0.4,0.6,0.8,0.9,1.2
		c0.3,0.4,0.7,0.8,1.1,1.3c0.4,0.4,0.7,0.9,1.1,1.4c0.4,0.5,0.8,0.9,1.2,1.4c0.4,0.5,0.8,0.9,1.2,1.4c0.2,0.2,0.4,0.4,0.6,0.6
		c0.2,0.2,0.4,0.4,0.6,0.6c0.4,0.4,0.8,0.8,1.2,1.2c0.2,0.2,0.4,0.4,0.5,0.5c0.2,0.2,0.4,0.3,0.5,0.5c1.4,1.2,2.3,2,2.3,2l-5.4,6.4
		c0,0-1-0.9-2.5-2.3c-0.2-0.2-0.4-0.3-0.6-0.5c-0.2-0.2-0.4-0.4-0.6-0.6c-0.4-0.4-0.9-0.8-1.3-1.3c-0.2-0.2-0.5-0.5-0.7-0.7
		c-0.2-0.2-0.5-0.5-0.7-0.7c-0.5-0.5-0.9-1-1.4-1.5c-0.5-0.5-0.9-1-1.4-1.5c-0.4-0.5-0.8-1-1.2-1.5c-0.4-0.5-0.8-1-1.2-1.4
		c-0.4-0.5-0.7-0.9-1-1.3c-0.6-0.8-1.1-1.5-1.5-2c-0.2-0.2-0.3-0.4-0.4-0.6C27.9,145.5,27.9,145.5,27.9,145.5z"/>
	<path class="st9" d="M13.8,106c0,0,0.2,1.2,0.4,3c0,0.2,0.1,0.5,0.1,0.7c0,0.2,0.1,0.5,0.1,0.8c0.1,0.5,0.2,1.1,0.3,1.6
		c0.1,0.6,0.2,1.2,0.3,1.7c0.1,0.6,0.3,1.2,0.4,1.8c0.3,1.2,0.6,2.4,0.9,3.5c0.3,1.1,0.6,2.1,0.9,3c0.6,1.7,1,2.9,1,2.9l6.1-2.2
		c0,0-0.4-1.1-0.9-2.7c-0.2-0.8-0.5-1.8-0.8-2.8c-0.3-1-0.6-2.1-0.8-3.2c-0.1-0.5-0.3-1.1-0.4-1.6c-0.1-0.5-0.2-1.1-0.3-1.6
		c-0.1-0.5-0.2-1-0.3-1.5c0-0.2-0.1-0.5-0.1-0.7c0-0.2-0.1-0.4-0.1-0.7c-0.2-1.7-0.4-2.8-0.4-2.8L13.8,106L13.8,106z M12.8,105.2
		l8.3-0.9c0,0,0,0.1,0,0.2c0,0.1,0,0.4,0.1,0.6c0.1,0.5,0.2,1.3,0.3,2.2c0,0.2,0.1,0.5,0.1,0.7c0,0.1,0,0.2,0.1,0.4
		c0,0.1,0,0.3,0.1,0.4c0.1,0.5,0.2,1.1,0.3,1.6c0.1,0.6,0.2,1.1,0.3,1.7c0.1,0.6,0.3,1.2,0.4,1.8c0.1,0.6,0.3,1.2,0.4,1.8
		c0.1,0.3,0.2,0.6,0.2,0.9c0.1,0.3,0.2,0.6,0.2,0.8c0.2,0.6,0.3,1.1,0.5,1.6c0.1,0.3,0.1,0.5,0.2,0.7c0.1,0.2,0.2,0.5,0.2,0.7
		c0.6,1.7,1,2.9,1,2.9l-7.8,2.9c0,0-0.5-1.3-1.1-3.2c-0.1-0.2-0.2-0.5-0.3-0.8c-0.1-0.3-0.2-0.5-0.2-0.8c-0.2-0.6-0.3-1.2-0.5-1.8
		c-0.1-0.3-0.2-0.6-0.3-0.9c-0.1-0.3-0.2-0.6-0.3-1c-0.2-0.7-0.3-1.3-0.5-2c-0.2-0.7-0.3-1.3-0.5-2c-0.1-0.7-0.2-1.3-0.4-1.9
		c-0.1-0.6-0.2-1.2-0.3-1.8c0-0.1-0.1-0.3-0.1-0.4c0-0.1,0-0.3-0.1-0.4c0-0.3-0.1-0.5-0.1-0.8c-0.1-1-0.3-1.8-0.3-2.4
		c0-0.3-0.1-0.5-0.1-0.7C12.8,105.3,12.8,105.2,12.8,105.2z"/>
	<path class="st2" d="M24.2,54.2c0,0-0.6,1.1-1.4,2.7c-0.1,0.2-0.2,0.4-0.3,0.6c-0.1,0.2-0.2,0.5-0.3,0.7c-0.2,0.5-0.5,1-0.7,1.5
		c-0.2,0.5-0.5,1.1-0.8,1.6c-0.2,0.6-0.5,1.1-0.7,1.7c-0.2,0.6-0.5,1.1-0.7,1.7c-0.2,0.6-0.4,1.1-0.6,1.7c-0.2,0.5-0.4,1.1-0.6,1.6
		c-0.2,0.5-0.4,1-0.5,1.4c-0.5,1.8-0.9,2.9-0.9,2.9l6.3,1.8c0,0,0.3-1.1,0.8-2.7c0.1-0.4,0.3-0.8,0.4-1.3c0.2-0.5,0.3-0.9,0.5-1.4
		c0.2-0.5,0.4-1,0.6-1.5c0.2-0.5,0.4-1,0.7-1.6c0.2-0.5,0.4-1,0.7-1.6c0.2-0.5,0.5-1,0.7-1.5c0.2-0.5,0.4-0.9,0.7-1.4
		c0.1-0.2,0.2-0.4,0.3-0.6c0.1-0.2,0.2-0.4,0.3-0.6c0.8-1.5,1.3-2.5,1.3-2.5L24.2,54.2L24.2,54.2z M23.8,52.9l7.3,4.2
		c0,0,0,0.1-0.1,0.2c0,0.1-0.1,0.1-0.1,0.2c0,0.1-0.1,0.2-0.2,0.3c-0.3,0.5-0.6,1.1-1,2c-0.1,0.2-0.2,0.4-0.3,0.6
		c-0.1,0.2-0.2,0.4-0.4,0.7c-0.2,0.5-0.5,1-0.7,1.5c-0.2,0.5-0.5,1.1-0.8,1.6c-0.2,0.6-0.5,1.1-0.7,1.7c-0.2,0.6-0.5,1.1-0.7,1.7
		c-0.2,0.6-0.4,1.1-0.6,1.7c-0.2,0.5-0.4,1.1-0.6,1.6c0,0.1-0.1,0.2-0.1,0.4c0,0.1-0.1,0.2-0.1,0.4c-0.1,0.2-0.1,0.5-0.2,0.7
		c-0.3,0.9-0.5,1.6-0.7,2.1c-0.1,0.3-0.1,0.5-0.2,0.6c0,0.1-0.1,0.2-0.1,0.2l-8.1-2.2c0,0,0-0.1,0.1-0.2c0-0.2,0.1-0.4,0.2-0.7
		c0.2-0.6,0.4-1.4,0.7-2.4c0.1-0.2,0.2-0.5,0.2-0.8c0-0.1,0.1-0.3,0.1-0.4c0-0.1,0.1-0.3,0.1-0.4c0.2-0.5,0.4-1.1,0.6-1.7
		c0.2-0.6,0.4-1.2,0.7-1.8c0.3-0.6,0.5-1.2,0.8-1.9c0.3-0.6,0.5-1.3,0.8-1.9c0.3-0.6,0.6-1.2,0.8-1.8c0.3-0.6,0.5-1.1,0.8-1.7
		c0.1-0.3,0.3-0.5,0.4-0.8c0.1-0.2,0.3-0.5,0.4-0.7c0.5-0.9,0.9-1.6,1.2-2.2c0.1-0.1,0.1-0.2,0.2-0.3c0.1-0.1,0.1-0.2,0.2-0.3
		C23.8,53,23.8,52.9,23.8,52.9z"/>
	<path class="st10" d="M63.1,18.4c0,0-1.1,0.5-2.8,1.3c-1.6,0.9-3.8,2-5.9,3.3c-0.5,0.3-1.1,0.6-1.6,0.9c-0.5,0.3-1,0.7-1.5,1
		c-0.5,0.3-0.9,0.6-1.4,0.9c-0.2,0.1-0.4,0.3-0.6,0.4c-0.2,0.1-0.4,0.3-0.6,0.4c-1.5,1.1-2.5,1.8-2.5,1.8l4,5.1c0,0,0.9-0.7,2.3-1.7
		c0.2-0.1,0.3-0.3,0.5-0.4c0.2-0.1,0.4-0.3,0.6-0.4c0.4-0.3,0.8-0.6,1.3-0.8c0.4-0.3,0.9-0.6,1.4-0.9c0.5-0.3,1-0.6,1.5-0.9
		c1.9-1.2,4-2.2,5.4-3c1.5-0.7,2.6-1.2,2.6-1.2L63.1,18.4L63.1,18.4z M63.5,17.1l3.4,7.6c0,0-1.1,0.5-2.8,1.3
		c-0.4,0.2-0.9,0.4-1.3,0.7c-0.5,0.2-1,0.5-1.5,0.8c-0.3,0.1-0.5,0.3-0.8,0.4c-0.1,0.1-0.3,0.1-0.4,0.2c-0.1,0.1-0.3,0.2-0.4,0.2
		c-0.5,0.3-1,0.6-1.6,0.9c-0.5,0.3-1.1,0.6-1.6,0.9c-0.5,0.3-1,0.7-1.5,1c-0.5,0.3-0.9,0.6-1.4,0.9c-0.2,0.1-0.4,0.3-0.6,0.4
		c-0.2,0.1-0.4,0.3-0.6,0.4c-0.7,0.5-1.4,1-1.8,1.3c-0.2,0.2-0.4,0.3-0.5,0.4c-0.1,0.1-0.2,0.1-0.2,0.1L45,28.3c0,0,0.1-0.1,0.2-0.2
		c0.1-0.1,0.3-0.2,0.6-0.4c0.5-0.4,1.2-0.9,2-1.5c0.2-0.2,0.4-0.3,0.6-0.5c0.2-0.2,0.4-0.3,0.7-0.5c0.5-0.3,1-0.7,1.5-1
		c0.5-0.4,1.1-0.7,1.6-1.1c0.6-0.4,1.2-0.7,1.7-1.1c0.6-0.3,1.2-0.7,1.7-1c0.1-0.1,0.3-0.2,0.4-0.3c0.1-0.1,0.3-0.2,0.4-0.2
		c0.3-0.2,0.6-0.3,0.9-0.5c0.6-0.3,1.1-0.6,1.6-0.9c0.5-0.3,1-0.5,1.5-0.7C62.3,17.7,63.5,17.1,63.5,17.1z"/>
	<path class="st11" d="M94.2,10.7c0,0-0.3,0-0.8,0c-0.5,0-1.3,0.1-2.2,0.2c-0.9,0.1-2,0.2-3.1,0.3c-0.6,0.1-1.2,0.2-1.8,0.2
		c-0.6,0.1-1.2,0.1-1.8,0.3c-1.2,0.2-2.4,0.5-3.5,0.7c-1.1,0.3-2.2,0.5-3.1,0.7c-0.4,0.1-0.9,0.2-1.2,0.3c-0.4,0.1-0.7,0.2-0.9,0.3
		c-0.5,0.2-0.8,0.2-0.8,0.2l1.8,6.3c0,0,0.3-0.1,0.7-0.2c0.2-0.1,0.5-0.2,0.9-0.3c0.3-0.1,0.7-0.2,1.1-0.3c0.8-0.2,1.8-0.4,2.8-0.7
		c1-0.2,2.2-0.4,3.3-0.6c0.6-0.1,1.1-0.2,1.7-0.3c0.5-0.1,1.1-0.1,1.6-0.2c1.1-0.2,2-0.2,2.9-0.3c0.8-0.1,1.5-0.1,2-0.2
		c0.5,0,0.8,0,0.8,0L94.2,10.7L94.2,10.7z M95.1,9.7l0.3,8.4c0,0-0.3,0-0.8,0c-0.3,0-0.6,0-1,0c-0.4,0-0.8,0.1-1.2,0.1
		c-0.5,0-1,0.1-1.5,0.1c-0.3,0-0.5,0-0.8,0.1c-0.3,0-0.6,0.1-0.8,0.1c-0.6,0.1-1.2,0.2-1.8,0.2c-0.3,0-0.6,0.1-0.9,0.1L86.1,19
		l-0.5,0.1c-1.2,0.2-2.4,0.4-3.5,0.7C81,20,80,20.3,79.1,20.5c-0.2,0.1-0.4,0.1-0.6,0.2c-0.2,0.1-0.4,0.1-0.6,0.2
		c-0.4,0.1-0.7,0.2-0.9,0.3c-0.5,0.2-0.8,0.2-0.8,0.2l-2.4-8c0,0,0.3-0.1,0.9-0.3c0.3-0.1,0.6-0.2,1-0.3c0.2-0.1,0.4-0.1,0.6-0.2
		c0.2-0.1,0.5-0.1,0.7-0.2c1-0.2,2.1-0.5,3.4-0.8c1.2-0.3,2.6-0.5,3.9-0.8l0.5-0.1l0.5-0.1c0.3,0,0.7-0.1,1-0.1
		c0.7-0.1,1.3-0.2,1.9-0.3c0.3,0,0.6-0.1,0.9-0.1c0.3,0,0.6-0.1,0.9-0.1c0.6-0.1,1.1-0.1,1.6-0.1c0.5,0,1-0.1,1.4-0.1
		c0.4,0,0.8,0,1.1,0C94.7,9.7,95.1,9.7,95.1,9.7z"/>
	<path class="st12" d="M167.8,60c0,0-0.1-0.3-0.4-0.7c-0.3-0.5-0.6-1.2-1.1-2c-0.5-0.8-1-1.7-1.6-2.7c-0.3-0.5-0.6-1-1-1.5
		c-0.3-0.5-0.7-1-1-1.5c-0.2-0.3-0.3-0.5-0.5-0.8c-0.2-0.2-0.4-0.5-0.5-0.7c-0.4-0.5-0.7-1-1.1-1.4c-0.7-0.9-1.4-1.7-2-2.5
		c-0.3-0.4-0.6-0.7-0.8-1c-0.1-0.1-0.2-0.3-0.3-0.4c-0.1-0.1-0.2-0.2-0.3-0.3c-0.4-0.4-0.6-0.6-0.6-0.6l6.2-5.6c0,0,0.2,0.3,0.6,0.7
		c0.1,0.1,0.2,0.2,0.3,0.4c0.1,0.1,0.2,0.3,0.4,0.4c0.3,0.3,0.6,0.7,0.9,1.1c0.6,0.8,1.4,1.7,2.2,2.7c0.4,0.5,0.8,1,1.2,1.6
		c0.2,0.3,0.4,0.5,0.6,0.8c0.2,0.3,0.4,0.6,0.6,0.8c0.4,0.6,0.8,1.1,1.1,1.7c0.4,0.6,0.7,1.1,1.1,1.6c0.7,1.1,1.3,2.1,1.8,3
		c0.5,0.9,0.9,1.6,1.2,2.2c0.3,0.5,0.4,0.8,0.4,0.8L167.8,60z"/>
	<path class="st13" d="M125.9,15.1c0,0-0.1,0-0.2-0.1c-0.1,0-0.3-0.1-0.6-0.2c-0.5-0.2-1.2-0.4-2.1-0.7c-0.2-0.1-0.4-0.1-0.7-0.2
		c-0.2-0.1-0.5-0.2-0.7-0.2c-0.5-0.1-1-0.3-1.6-0.4c-0.6-0.1-1.1-0.3-1.7-0.4c-0.3-0.1-0.6-0.1-0.9-0.2c-0.3-0.1-0.6-0.1-0.9-0.2
		c-0.6-0.1-1.2-0.3-1.8-0.4c-0.3-0.1-0.6-0.1-0.9-0.2c-0.3,0-0.6-0.1-0.9-0.1c-1.1-0.2-2.2-0.3-3.1-0.5c-1.8-0.2-3.1-0.3-3.1-0.3
		l-0.6,6.5c0,0,1.1,0.1,2.8,0.3c0.8,0.1,1.8,0.3,2.9,0.5c0.3,0,0.5,0.1,0.8,0.1c0.3,0,0.5,0.1,0.8,0.2c0.5,0.1,1.1,0.2,1.7,0.3
		c0.3,0.1,0.6,0.1,0.8,0.2c0.3,0.1,0.6,0.1,0.8,0.2c0.5,0.1,1.1,0.3,1.6,0.4c0.5,0.1,1,0.3,1.5,0.4c0.2,0.1,0.5,0.1,0.7,0.2
		c0.2,0.1,0.4,0.1,0.6,0.2c0.8,0.3,1.5,0.5,2,0.6c0.2,0.1,0.4,0.1,0.6,0.2c0.1,0,0.2,0.1,0.2,0.1L125.9,15.1L125.9,15.1z
		 M127.1,14.5l-2.8,7.9c0,0-0.3-0.1-0.8-0.3c-0.5-0.2-1.2-0.4-2.1-0.7c-0.4-0.1-0.9-0.3-1.4-0.4c-0.5-0.1-1-0.3-1.6-0.4
		c-0.6-0.1-1.1-0.3-1.7-0.4c-0.1,0-0.3-0.1-0.4-0.1l-0.4-0.1c-0.3-0.1-0.6-0.1-0.9-0.2c-1.2-0.2-2.4-0.5-3.5-0.7
		c-0.6-0.1-1.1-0.2-1.6-0.3c-0.3,0-0.5-0.1-0.8-0.1c-0.2,0-0.5-0.1-0.7-0.1c-1.8-0.2-3.1-0.3-3.1-0.3l0.7-8.3c0,0,1.3,0.1,3.4,0.4
		c0.3,0,0.5,0,0.8,0.1c0.3,0,0.6,0.1,0.8,0.1c0.6,0.1,1.2,0.2,1.8,0.3c1.3,0.2,2.6,0.5,3.9,0.8c0.3,0.1,0.7,0.1,1,0.2
		c0.2,0,0.3,0.1,0.5,0.1c0.2,0,0.3,0.1,0.5,0.1c0.6,0.2,1.3,0.3,1.9,0.5c0.6,0.2,1.2,0.3,1.8,0.5c0.6,0.2,1.1,0.3,1.6,0.5
		c1,0.3,1.8,0.5,2.3,0.7C126.8,14.4,127.1,14.5,127.1,14.5z"/>
	<path class="st13" d="M181,118.4c0,0,0.3-1.2,0.8-3c0.4-1.8,0.9-4.2,1.3-6.6c0.1-0.6,0.2-1.2,0.3-1.8c0.1-0.6,0.1-1.2,0.2-1.8
		c0.1-1.1,0.3-2.2,0.3-3.1c0.1-1.8,0.2-3.1,0.2-3.1l-6.5-0.2c0,0-0.1,1.1-0.2,2.8c0,0.8-0.2,1.8-0.3,2.9c-0.1,0.5-0.1,1.1-0.2,1.6
		c-0.1,0.6-0.2,1.1-0.3,1.7c-0.3,2.2-0.8,4.5-1.2,6.1c-0.4,1.6-0.7,2.7-0.7,2.7L181,118.4L181,118.4z M181.7,119.5l-8.1-2.3
		c0,0,0.3-1.2,0.8-3c0.1-0.2,0.1-0.5,0.2-0.7c0-0.2,0.1-0.5,0.2-0.8c0.1-0.5,0.2-1.1,0.3-1.6c0.1-0.3,0.1-0.6,0.2-0.9
		c0-0.1,0.1-0.3,0.1-0.4c0-0.2,0-0.3,0.1-0.4c0.1-0.6,0.2-1.2,0.3-1.8c0-0.3,0.1-0.6,0.1-0.9c0-0.3,0.1-0.6,0.1-0.9
		c0.1-0.6,0.1-1.2,0.2-1.8c0.1-0.6,0.1-1.1,0.2-1.6c0-0.5,0.1-1,0.1-1.5c0.1-0.9,0.1-1.7,0.1-2.2c0-0.5,0-0.8,0-0.8l8.4,0.2
		c0,0,0,0.3,0,0.9c0,0.6-0.1,1.4-0.1,2.5c0,0.5-0.1,1.1-0.1,1.6c-0.1,0.6-0.1,1.2-0.2,1.8c-0.1,0.6-0.1,1.3-0.2,2
		c0,0.3-0.1,0.7-0.1,1c-0.1,0.3-0.1,0.7-0.2,1c-0.1,0.7-0.2,1.3-0.3,2c0,0.2-0.1,0.3-0.1,0.5c0,0.2-0.1,0.3-0.1,0.5
		c-0.1,0.3-0.1,0.6-0.2,0.9c-0.1,0.6-0.3,1.2-0.4,1.8c-0.1,0.3-0.1,0.6-0.2,0.8c-0.1,0.3-0.1,0.5-0.2,0.8
		C182,118.2,181.7,119.5,181.7,119.5z"/>
	<path class="st14" d="M133.8,173.8c0,0,1.1-0.5,2.8-1.3c0.4-0.2,0.9-0.4,1.3-0.7c0.5-0.2,1-0.5,1.5-0.8c0.5-0.3,1-0.5,1.6-0.8
		c0.5-0.3,1-0.6,1.6-0.9c0.5-0.3,1.1-0.6,1.6-0.9c0.1-0.1,0.3-0.2,0.4-0.2c0.1-0.1,0.2-0.2,0.4-0.2c0.2-0.2,0.5-0.3,0.7-0.5
		c1-0.6,1.9-1.2,2.6-1.8c1.5-1.1,2.5-1.8,2.5-1.8l-4-5.2c0,0-0.9,0.7-2.3,1.7c-0.7,0.5-1.5,1-2.4,1.6c-0.2,0.1-0.4,0.3-0.7,0.5
		c-0.1,0.1-0.2,0.2-0.3,0.2c-0.1,0.1-0.2,0.1-0.4,0.2c-0.5,0.3-1,0.6-1.5,0.9c-0.5,0.3-1,0.6-1.4,0.9c-0.5,0.3-1,0.5-1.4,0.8
		c-0.5,0.3-0.9,0.5-1.4,0.7c-0.4,0.2-0.8,0.5-1.2,0.6c-1.5,0.7-2.6,1.2-2.6,1.2L133.8,173.8L133.8,173.8z M133.3,175l-3.4-7.7
		c0,0,1.1-0.5,2.8-1.3c0.8-0.4,1.8-0.9,2.8-1.4c0.5-0.3,1-0.5,1.6-0.8c0.5-0.3,1-0.6,1.6-0.9c0.5-0.3,1.1-0.6,1.6-0.9
		c0.3-0.1,0.5-0.3,0.7-0.5c0.2-0.2,0.5-0.3,0.7-0.5c0.5-0.3,0.9-0.6,1.4-0.9c0.2-0.1,0.4-0.3,0.6-0.4c0.2-0.1,0.4-0.3,0.6-0.4
		c1.5-1.1,2.5-1.8,2.5-1.8l5.2,6.6c0,0-1.1,0.8-2.7,2c-0.2,0.2-0.4,0.3-0.6,0.5c-0.2,0.2-0.5,0.3-0.7,0.5c-0.5,0.3-1,0.7-1.5,1
		c-0.3,0.2-0.5,0.4-0.8,0.5c-0.3,0.2-0.5,0.4-0.8,0.5c-0.6,0.3-1.2,0.7-1.7,1c-0.6,0.3-1.2,0.7-1.7,1c-0.6,0.3-1.2,0.6-1.7,0.9
		c-1.1,0.6-2.2,1.2-3.1,1.6C134.5,174.5,133.3,175,133.3,175z"/>
	<path class="st5" d="M183.5,86.4c0,0-0.2-1.2-0.4-3c0-0.2-0.1-0.5-0.1-0.7c0-0.1,0-0.2-0.1-0.4c0-0.1,0-0.3-0.1-0.4
		c-0.1-0.5-0.2-1.1-0.3-1.6c-0.1-0.6-0.2-1.1-0.3-1.7c0-0.1-0.1-0.3-0.1-0.4c0-0.1-0.1-0.3-0.1-0.4c-0.1-0.3-0.1-0.6-0.2-0.9
		c-0.1-0.6-0.3-1.2-0.4-1.8c-0.1-0.3-0.1-0.6-0.2-0.9c-0.1-0.3-0.2-0.6-0.2-0.8c-0.3-1.1-0.6-2.1-0.9-3c-0.1-0.4-0.3-0.8-0.4-1.2
		c-0.1-0.4-0.2-0.7-0.3-0.9c-0.2-0.5-0.3-0.8-0.3-0.8l-6.1,2.2c0,0,0.1,0.3,0.3,0.7c0.1,0.2,0.2,0.5,0.3,0.8
		c0.1,0.3,0.3,0.7,0.4,1.1c0.2,0.8,0.5,1.8,0.8,2.8c0.1,0.3,0.2,0.5,0.2,0.8c0.1,0.3,0.1,0.5,0.2,0.8c0.1,0.5,0.3,1.1,0.4,1.6
		c0.1,0.3,0.1,0.6,0.2,0.8c0,0.1,0.1,0.3,0.1,0.4c0,0.1,0.1,0.3,0.1,0.4c0.1,0.5,0.2,1.1,0.3,1.6c0.1,0.5,0.2,1,0.3,1.5
		c0,0.1,0,0.2,0.1,0.4c0,0.1,0,0.2,0,0.3c0,0.2,0.1,0.4,0.1,0.7c0.2,1.7,0.4,2.8,0.4,2.8L183.5,86.4L183.5,86.4z M184.5,87.2
		l-8.3,0.8c0,0,0-0.3-0.1-0.8c-0.1-0.5-0.2-1.3-0.3-2.2c-0.1-0.5-0.1-0.9-0.2-1.5c-0.1-0.5-0.2-1.1-0.3-1.6
		c-0.1-0.6-0.2-1.2-0.3-1.7c0-0.1-0.1-0.3-0.1-0.4c0-0.1-0.1-0.3-0.1-0.4c-0.1-0.3-0.1-0.6-0.2-0.9c-0.5-2.4-1.3-4.7-1.8-6.5
		c-0.6-1.7-1-2.9-1-2.9l7.8-2.9c0,0,0.5,1.3,1.1,3.2c0.6,1.9,1.4,4.5,2,7.2c0.1,0.3,0.2,0.7,0.2,1c0,0.2,0.1,0.3,0.1,0.5
		c0,0.2,0.1,0.3,0.1,0.5c0.1,0.7,0.2,1.3,0.4,1.9c0.1,0.6,0.2,1.2,0.3,1.8c0.1,0.6,0.2,1.1,0.2,1.6c0.1,1,0.3,1.9,0.3,2.4
		C184.5,86.9,184.5,87.2,184.5,87.2z"/>
	<path class="st15" d="M42.9,41.5c0,0-0.1,0.1-0.3,0.3c-0.1,0.1-0.2,0.2-0.3,0.3c-0.1,0.1-0.3,0.3-0.4,0.5c-0.6,0.7-1.4,1.6-2.3,2.5
		c-0.8,0.9-1.6,1.9-2.1,2.6c-0.1,0.2-0.3,0.3-0.4,0.5c-0.1,0.1-0.2,0.3-0.3,0.4c-0.2,0.2-0.3,0.3-0.3,0.3l-6.7-5
		c0,0,0.1-0.1,0.3-0.4c0.1-0.1,0.2-0.3,0.3-0.4c0.1-0.2,0.3-0.3,0.4-0.5c0.7-0.8,1.5-1.8,2.4-2.9c0.9-1,1.8-2,2.5-2.8
		c0.2-0.2,0.3-0.4,0.5-0.5c0.1-0.1,0.3-0.3,0.4-0.4c0.2-0.2,0.3-0.3,0.3-0.3L42.9,41.5z"/>
	<path class="st16" d="M166,135.3c0,0,0.1-0.1,0.2-0.4c0.1-0.1,0.2-0.3,0.3-0.4c0.1-0.2,0.2-0.4,0.3-0.6c0.4-0.8,1-1.9,1.6-3
		c0.5-1.1,1.1-2.2,1.5-3c0.2-0.4,0.3-0.8,0.4-1c0.1-0.3,0.2-0.4,0.2-0.4l7.7,3.3c0,0-0.1,0.2-0.2,0.4c-0.1,0.3-0.3,0.7-0.5,1.1
		c-0.4,0.9-1,2.1-1.6,3.4c-0.6,1.2-1.3,2.4-1.8,3.3c-0.1,0.2-0.2,0.4-0.3,0.6c-0.1,0.2-0.2,0.3-0.3,0.5c-0.2,0.3-0.2,0.4-0.2,0.4
		L166,135.3z"/>
	<path class="st15" d="M160,155.4c0,0,0.1-0.1,0.3-0.3c0.2-0.2,0.4-0.4,0.7-0.7c0.6-0.6,1.3-1.4,2-2.3c0.2-0.2,0.4-0.4,0.5-0.6
		c0.2-0.2,0.3-0.4,0.5-0.6c0.3-0.4,0.6-0.8,0.9-1.1c0.5-0.6,0.9-1.1,0.9-1.1l-5.1-4c0,0-0.3,0.4-0.8,1c-0.2,0.3-0.5,0.6-0.8,1
		c-0.2,0.2-0.3,0.4-0.5,0.6c-0.2,0.2-0.3,0.4-0.5,0.6c-0.7,0.8-1.4,1.5-1.9,2.1c-0.3,0.3-0.5,0.5-0.6,0.7c-0.2,0.2-0.3,0.2-0.3,0.2
		L160,155.4L160,155.4z M160,156.7l-6-5.9c0,0,0.4-0.4,1.1-1.1c0.6-0.7,1.4-1.6,2.3-2.5c0.4-0.4,0.8-0.9,1.2-1.4
		c0.4-0.4,0.7-0.9,1-1.2c0.3-0.4,0.5-0.6,0.7-0.9c0.2-0.2,0.3-0.3,0.3-0.3l6.6,5.1c0,0-0.1,0.1-0.3,0.4c-0.2,0.2-0.5,0.6-0.8,1
		c-0.3,0.4-0.7,0.9-1.1,1.3c-0.4,0.5-0.8,1-1.3,1.5c-0.9,1-1.8,2-2.5,2.8C160.5,156.2,160,156.7,160,156.7z"/>
	<path class="st17" d="M128.1,189.9l1.4-0.4l-1.6-5l-1.3,0.4L128.1,189.9L128.1,189.9z M127.6,190.5l-1.7-5.9l2.4-0.7l1.9,5.9
		L127.6,190.5z"/>
	<polygon class="st18" points="120.8,186 123.3,185.4 124.9,191.3 122.3,192 	"/>
	<polygon class="st18" points="115.8,187.1 118.2,186.6 119.5,192.6 116.9,193.1 	"/>
	<path class="st13" d="M112,193.5l1.4-0.2l-0.8-5.2l-1.4,0.2L112,193.5L112,193.5z M111.4,194l-0.8-6.1l2.5-0.3l1,6.1L111.4,194z"/>
	<g class="st19">
		<path class="st1" d="M23.3,32.8c0,0-0.2,0.3-0.6,0.7c-0.2,0.2-0.4,0.4-0.6,0.7c-0.2,0.2-0.4,0.5-0.7,0.8c-0.9,1.1-1.8,2.2-1.8,2.2
			l-0.9-0.7c0,0,0.9-1.1,1.8-2.2c0.2-0.3,0.4-0.5,0.7-0.8c0.2-0.2,0.4-0.5,0.6-0.7c0.4-0.4,0.6-0.7,0.6-0.7L23.3,32.8z"/>
	</g>
	<g class="st20">
		<path class="st1" d="M29.3,26.4c0,0-1,1-2,2c-0.2,0.3-0.5,0.5-0.7,0.7c-0.2,0.2-0.4,0.5-0.6,0.7c-0.4,0.4-0.6,0.6-0.6,0.6
			l-0.9-0.8c0,0,0.2-0.3,0.6-0.6c0.2-0.2,0.4-0.4,0.6-0.7c0.2-0.2,0.5-0.5,0.7-0.7c1-1,2-2,2-2L29.3,26.4z"/>
	</g>
	<g class="st21">
		<path class="st1" d="M42.4,14.8c0,0-0.3,0.2-0.7,0.5c-0.4,0.3-1,0.8-1.5,1.2c-1.1,0.9-2.2,1.8-2.2,1.8l-0.7-0.9
			c0,0,1.1-0.9,2.2-1.8c0.5-0.4,1.1-0.9,1.5-1.2c0.4-0.3,0.7-0.5,0.7-0.5L42.4,14.8z"/>
	</g>
	<g class="st20">
		<path class="st1" d="M35.7,20.4c0,0-1,0.9-2.1,1.9c-1,0.9-2.1,1.9-2.1,1.9l-0.8-0.8c0,0,1-1,2.1-1.9c1-0.9,2.1-1.9,2.1-1.9
			L35.7,20.4z"/>
	</g>
	<g class="st22">
		<path class="st1" d="M25.6,34.8c0,0-0.2,0.3-0.6,0.6c-0.2,0.2-0.4,0.4-0.6,0.7c-0.2,0.2-0.4,0.5-0.6,0.8C23,37.9,22.1,39,22.1,39
			l-0.9-0.7c0,0,0.9-1.1,1.7-2.1c0.2-0.3,0.4-0.5,0.6-0.8c0.2-0.2,0.4-0.5,0.6-0.7c0.3-0.4,0.6-0.6,0.6-0.6L25.6,34.8z"/>
	</g>
	<g class="st23">
		<path class="st1" d="M31.5,28.6c0,0-1,1-1.9,1.9c-0.2,0.2-0.5,0.5-0.7,0.7c-0.2,0.2-0.4,0.5-0.6,0.6c-0.3,0.4-0.6,0.6-0.6,0.6
			l-0.9-0.8c0,0,0.2-0.3,0.6-0.6c0.2-0.2,0.4-0.4,0.6-0.6c0.2-0.2,0.5-0.5,0.7-0.7c1-1,1.9-2,1.9-2L31.5,28.6z"/>
	</g>
	<g class="st24">
		<path class="st1" d="M44.3,17.3c0,0-0.3,0.2-0.7,0.5c-0.4,0.3-0.9,0.7-1.5,1.2c-1.1,0.9-2.1,1.7-2.1,1.7l-0.7-0.9
			c0,0,1.1-0.9,2.1-1.7c0.5-0.4,1.1-0.9,1.5-1.2c0.4-0.3,0.7-0.5,0.7-0.5L44.3,17.3z"/>
	</g>
	<g class="st25">
		<path class="st1" d="M37.7,22.7c0,0-1,0.9-2,1.8c-1,0.9-2,1.8-2,1.8l-0.8-0.8c0,0,1-0.9,2-1.9c1-0.9,2-1.8,2-1.8L37.7,22.7z"/>
	</g>
	<g class="st21">
		<path class="st1" d="M6.2,74.6c0,0,0,0.1,0,0.2c0,0.1-0.1,0.3-0.1,0.5c-0.1,0.4-0.2,0.9-0.3,1.5c-0.2,1.1-0.5,2.2-0.5,2.2
			l-1.1-0.2c0,0,0.2-1.1,0.5-2.2C4.7,76,4.8,75.4,4.9,75C5,74.8,5,74.6,5,74.5c0-0.1,0-0.2,0-0.2L6.2,74.6z"/>
	</g>
	<g class="st26">
		<path class="st1" d="M8.1,67.9c0,0-0.3,1.1-0.6,2.1c-0.3,1.1-0.6,2.1-0.6,2.1l-1.1-0.3c0,0,0.3-1.1,0.6-2.2
			c0.3-1.1,0.7-2.1,0.7-2.1L8.1,67.9z"/>
	</g>
	<g class="st27">
		<path class="st1" d="M171.3,162.9c0,0,0.3-0.2,0.7-0.6c0.4-0.4,0.9-0.8,1.4-1.3c1-1,2-2,2-2l0.8,0.8c0,0-1,1-2,2
			c-0.5,0.5-1,1-1.4,1.3c-0.4,0.4-0.7,0.6-0.7,0.6L171.3,162.9z"/>
	</g>
	<g class="st28">
		<path class="st1" d="M164.6,168.8c0,0,1.1-0.9,2.2-1.8c0.5-0.5,1.1-0.9,1.5-1.3c0.4-0.4,0.7-0.6,0.7-0.6l0.8,0.9
			c0,0-0.3,0.2-0.7,0.6c-0.4,0.4-1,0.8-1.5,1.3c-1.1,0.9-2.2,1.8-2.2,1.8L164.6,168.8z"/>
	</g>
	<g class="st29">
		<path class="st1" d="M150,179.1c0,0,0.3-0.2,0.8-0.5c0.5-0.3,1.1-0.7,1.6-1.1c1.2-0.8,2.4-1.6,2.4-1.6l0.7,1c0,0-1.2,0.8-2.4,1.6
			c-0.6,0.4-1.2,0.8-1.7,1.1c-0.5,0.3-0.8,0.5-0.8,0.5L150,179.1z"/>
	</g>
	<g class="st30">
		<path class="st1" d="M142.3,183.5c0,0,1.2-0.7,2.5-1.3c0.6-0.3,1.2-0.7,1.7-1c0.5-0.3,0.8-0.5,0.8-0.5l0.6,1c0,0-0.3,0.2-0.8,0.5
			c-0.5,0.3-1.1,0.7-1.7,1c-1.3,0.7-2.5,1.4-2.5,1.4L142.3,183.5z"/>
	</g>
	<g class="st31">
		<path class="st1" d="M157.5,174.2c0,0,1.1-0.8,2.3-1.7c1.1-0.9,2.3-1.7,2.3-1.7l0.7,0.9c0,0-1.1,0.9-2.3,1.7
			c-1.2,0.9-2.3,1.7-2.3,1.7L157.5,174.2z"/>
	</g>
	<g class="st29">
		<path class="st1" d="M169.2,160.6c0,0,0.3-0.2,0.6-0.6c0.4-0.4,0.9-0.8,1.4-1.3c1-1,2-2,2-2l0.8,0.8c0,0-1,1-2,2
			c-0.5,0.5-1,1-1.4,1.3c-0.4,0.4-0.6,0.6-0.6,0.6L169.2,160.6z"/>
	</g>
	<g class="st32">
		<path class="st1" d="M162.6,166.4c0,0,1.1-0.9,2.1-1.8c0.5-0.4,1.1-0.9,1.5-1.2c0.4-0.3,0.6-0.6,0.6-0.6l0.8,0.9
			c0,0-0.3,0.2-0.7,0.6c-0.4,0.3-0.9,0.8-1.5,1.2c-1.1,0.9-2.2,1.8-2.2,1.8L162.6,166.4z"/>
	</g>
	<g class="st33">
		<path class="st1" d="M148.4,176.4c0,0,0.3-0.2,0.7-0.5c0.4-0.3,1-0.6,1.6-1c1.2-0.8,2.3-1.5,2.3-1.5l0.7,1c0,0-1.2,0.8-2.3,1.6
			c-0.6,0.4-1.2,0.8-1.6,1c-0.4,0.3-0.7,0.5-0.7,0.5L148.4,176.4z"/>
	</g>
	<g class="st29">
		<path class="st1" d="M140.8,180.8c0,0,1.2-0.7,2.4-1.3c0.6-0.3,1.2-0.7,1.7-1c0.4-0.3,0.7-0.4,0.7-0.4l0.6,1c0,0-0.3,0.2-0.8,0.4
			c-0.5,0.3-1,0.6-1.7,1c-1.2,0.7-2.5,1.3-2.5,1.3L140.8,180.8z"/>
	</g>
	<g class="st34">
		<path class="st1" d="M155.7,171.6c0,0,1.1-0.8,2.2-1.7c1.1-0.8,2.2-1.7,2.2-1.7l0.7,0.9c0,0-1.1,0.8-2.2,1.7
			c-1.1,0.8-2.3,1.7-2.3,1.7L155.7,171.6z"/>
	</g>
	<g class="st21">
		<path class="st1" d="M40.7,172.5c0,0,0.2,0.1,0.4,0.3c0.1,0.1,0.2,0.1,0.3,0.2c0.1,0.1,0.1,0.1,0.1,0.1l-3.2,4.2c0,0,0,0-0.1-0.1
			c-0.1-0.1-0.2-0.1-0.3-0.2c-0.2-0.2-0.4-0.3-0.4-0.3L40.7,172.5z"/>
	</g>
	<g class="st35">
		<polygon class="st1" points="37.2,169.6 37.9,170.2 34.5,174.2 33.8,173.6 		"/>
	</g>
	<g class="st36">
		<polygon class="st1" points="33.8,166.6 34.5,167.2 30.9,171.1 30.2,170.4 		"/>
	</g>
	<g class="st37">
		<polygon class="st1" points="30.5,163.4 31.2,164.1 27.5,167.8 26.8,167.1 		"/>
	</g>
	<g class="st38">
		<polygon class="st1" points="27.4,160.1 28,160.8 24.1,164.4 23.5,163.7 		"/>
	</g>
	<g class="st39">
		<polygon class="st1" points="24.4,156.7 25,157.4 21,160.9 20.3,160.1 		"/>
	</g>
	<g class="st26">
		<path class="st1" d="M21.5,153.2c0,0,0.1,0.2,0.3,0.4c0.1,0.2,0.3,0.4,0.3,0.4l-4.2,3.3c0,0-0.2-0.2-0.3-0.4
			c-0.1-0.2-0.3-0.4-0.3-0.4L21.5,153.2z"/>
	</g>
	<g class="st40">
		<polygon class="st1" points="18.8,149.5 19.3,150.3 15,153.4 14.5,152.6 		"/>
	</g>
	<g class="st28">
		<polygon class="st1" points="16.2,145.7 16.7,146.5 12.3,149.4 11.8,148.6 		"/>
	</g>
	<g class="st41">
		<polygon class="st1" points="185.2,62.6 184.9,61.7 190,60 190.3,61 		"/>
	</g>
	<g class="st21">
		<polygon class="st1" points="186.6,67 186.3,66.1 191.4,64.6 191.7,65.5 		"/>
	</g>
	<g class="st23">
		<polygon class="st1" points="187.7,71.4 187.5,70.5 192.6,69.2 192.9,70.1 		"/>
	</g>
	<g class="st33">
		<polygon class="st1" points="188.7,75.8 188.5,74.9 193.7,73.8 193.9,74.8 		"/>
	</g>
	<g class="st42">
		<path class="st1" d="M189.5,80.3c0,0,0-0.2-0.1-0.5c0-0.1,0-0.2-0.1-0.3c0-0.1,0-0.1,0-0.1l5.2-0.9c0,0,0,0.1,0,0.1
			c0,0.1,0,0.2,0.1,0.3c0,0.2,0.1,0.5,0.1,0.5L189.5,80.3z"/>
	</g>
	<g class="st33">
		<polygon class="st1" points="190.2,84.8 190,83.9 195.3,83.3 195.4,84.2 		"/>
	</g>
	<g class="st31">
		<polygon class="st1" points="190.6,89.4 190.5,88.5 195.8,88 195.8,89 		"/>
	</g>
	<g class="st29">
		<polygon class="st1" points="190.8,94 190.8,93 196.1,92.8 196.1,93.8 		"/>
	</g>
	<g class="st25">
		<polygon class="st1" points="190.9,98.5 190.9,97.6 196.2,97.6 196.2,98.6 		"/>
	</g>
</g>
</svg>
