<?xml version="1.0" encoding="utf-8"?>
<!-- Generator: Adobe Illustrator 28.2.0, SVG Export Plug-In . SVG Version: 6.00 Build 0)  -->
<svg version="1.1" id="Layer_1" xmlns="http://www.w3.org/2000/svg" xmlns:xlink="http://www.w3.org/1999/xlink" x="0px" y="0px"
	 viewBox="0 0 200 200" style="enable-background:new 0 0 200 200;" xml:space="preserve">
<style type="text/css">
	.st0{opacity:0.2;}
	.st1{fill:url(#SVGID_1_);}
	.st2{fill:url(#SVGID_00000180366030427296798970000005350782012162496948_);}
	.st3{fill:url(#SVGID_00000000195107207418513380000014969163138436921248_);}
</style>
<g class="st0">
	<g>
		
			<linearGradient id="SVGID_1_" gradientUnits="userSpaceOnUse" x1="-19.383" y1="288.821" x2="129.2284" y2="288.821" gradientTransform="matrix(-0.9794 0.2018 -0.2018 -0.9794 198.983 363.9139)">
			<stop  offset="0" style="stop-color:#009CFF"/>
			<stop  offset="1" style="stop-color:#00F3FF"/>
		</linearGradient>
		<path class="st1" d="M157.3,109.8c16-53.1-30.1-103.6-83.9-93.7C-92.5,46.6,108.6,271.5,157.3,109.8z"/>
		
			<linearGradient id="SVGID_00000078757258785432684030000015037780562683551165_" gradientUnits="userSpaceOnUse" x1="-96.6674" y1="364.6746" x2="50.9842" y2="364.6746" gradientTransform="matrix(0.9044 0.4267 -0.4267 0.9044 282.98 -230.8618)">
			<stop  offset="0" style="stop-color:#009CFF"/>
			<stop  offset="1" style="stop-color:#00F3FF"/>
		</linearGradient>
		<path style="fill:url(#SVGID_00000078757258785432684030000015037780562683551165_);" d="M125.9,16.4
			C49.4-1.2-5.4,103.1,57.9,148.8c32.3,23.3,87,12.4,110.3-19.9C198.4,87.1,176.2,28,125.9,16.4z"/>
		
			<linearGradient id="SVGID_00000053539323982543659340000005708381813194924715_" gradientUnits="userSpaceOnUse" x1="-56.3012" y1="349.8019" x2="102.7633" y2="349.8019" gradientTransform="matrix(-0.9149 0.4036 -0.4036 -0.9149 265.6383 419.3431)">
			<stop  offset="0" style="stop-color:#009CFF"/>
			<stop  offset="1" style="stop-color:#00F3FF"/>
		</linearGradient>
		<path style="fill:url(#SVGID_00000053539323982543659340000005708381813194924715_);" d="M139,169.9c85-57.6,30.8-153.6-59-128.5
			c-38.4,10.7-62.8,48-53.7,86.7C38.1,178.3,96.3,198.9,139,169.9z"/>
	</g>
</g>
</svg>
