<?xml version="1.0" encoding="utf-8"?>
<!-- Generator: Adobe Illustrator 28.2.0, SVG Export Plug-In . SVG Version: 6.00 Build 0)  -->
<svg version="1.1" id="Layer_1" xmlns="http://www.w3.org/2000/svg" xmlns:xlink="http://www.w3.org/1999/xlink" x="0px" y="0px"
	 viewBox="0 0 210 48" style="enable-background:new 0 0 210 48;" xml:space="preserve">
<style type="text/css">
	.st0{fill:#FFFFFF;}
	.st1{fill:#0064FF;}
	.st2{fill:#182951;}
</style>
<g>
	<g>
		<path class="st0" d="M69.7,18.4v-5.7c0-0.5,0.2-0.7,0.7-0.7h3.1c0.5,0,0.7,0.2,0.7,0.7v16.8c0,1.2-0.1,2.1-0.4,3
			c-0.3,0.8-0.7,1.5-1.3,2c-0.6,0.5-1.4,0.9-2.4,1.1c-1,0.2-2.2,0.4-3.6,0.4h-9c-1.5,0-2.7-0.1-3.6-0.4c-1-0.2-1.7-0.6-2.3-1.1
			c-0.6-0.5-1-1.2-1.3-2c-0.3-0.8-0.4-1.8-0.4-3v-4.6c0-1.2,0.1-2.1,0.4-3c0.3-0.8,0.7-1.5,1.3-2s1.4-0.9,2.3-1.2
			c1-0.2,2.2-0.4,3.6-0.4H69.7z M66.2,32.2c0.7,0,1.3-0.1,1.7-0.2c0.4-0.1,0.8-0.3,1.1-0.6c0.3-0.3,0.5-0.6,0.6-1.1
			c0.1-0.4,0.2-1,0.2-1.7v-6.4H58.2c-0.7,0-1.2,0.1-1.7,0.2s-0.8,0.3-1.1,0.6c-0.3,0.3-0.5,0.6-0.6,1.1c-0.1,0.5-0.2,1-0.2,1.7v2.8
			c0,0.7,0.1,1.2,0.2,1.7c0.1,0.4,0.3,0.8,0.6,1.1c0.3,0.3,0.6,0.5,1.1,0.6s1,0.2,1.7,0.2H66.2z"/>
		<path class="st0" d="M91.7,18.4c1.4,0,2.6,0.1,3.6,0.4c1,0.2,1.8,0.6,2.4,1.2s1,1.2,1.3,2c0.3,0.8,0.4,1.8,0.4,3v8.5
			c0,0.5,0,0.9-0.1,1.3c-0.1,0.3-0.2,0.6-0.4,0.8c-0.2,0.2-0.4,0.3-0.7,0.4C97.8,36,97.4,36,96.9,36H81.7c-0.9,0-1.7-0.1-2.4-0.3
			c-0.6-0.2-1.1-0.5-1.5-0.8s-0.7-0.8-0.8-1.4c-0.2-0.6-0.2-1.3-0.2-2v-1.5c0-0.7,0.1-1.3,0.2-1.8c0.2-0.5,0.4-1,0.8-1.3
			c0.4-0.4,0.9-0.6,1.5-0.8c0.6-0.2,1.4-0.3,2.4-0.3h13v-0.6c0-0.5-0.1-0.9-0.2-1.3c-0.1-0.4-0.3-0.7-0.5-0.9
			c-0.3-0.2-0.6-0.4-1.1-0.5c-0.4-0.1-1-0.2-1.7-0.2H77.8c-0.4,0-0.6-0.2-0.6-0.6V19c0-0.4,0.2-0.6,0.6-0.6H91.7z M93.8,32.5
			c0.3,0,0.6-0.1,0.7-0.2c0.1-0.2,0.2-0.4,0.2-0.8v-2.8H83c-0.7,0-1.1,0.1-1.4,0.4c-0.3,0.3-0.4,0.7-0.4,1.2v0.7
			c0,0.6,0.1,1,0.4,1.3c0.3,0.3,0.7,0.4,1.4,0.4H93.8z"/>
		<path class="st0" d="M104,18.4v-4.2c0-0.5,0.2-0.7,0.7-0.7h3.2c0.5,0,0.7,0.2,0.7,0.7v4.2h5.6c0.4,0,0.6,0.2,0.6,0.6v2.6
			c0,0.4-0.2,0.6-0.6,0.6h-5.6v7.4c0,0.9,0.2,1.6,0.5,2c0.4,0.4,1.1,0.6,2.1,0.6h3.1c0.4,0,0.6,0.2,0.6,0.6v2.6
			c0,0.4-0.2,0.6-0.6,0.6h-3.9c-1.3,0-2.3-0.1-3.2-0.4c-0.8-0.2-1.5-0.6-2-1.1s-0.8-1.2-1-2c-0.2-0.8-0.3-1.8-0.3-2.9v-7.4h-3
			c-0.4,0-0.6-0.2-0.6-0.6V19c0-0.4,0.2-0.6,0.6-0.6H104z"/>
		<path class="st0" d="M121.1,13.6c0.5,0,0.7,0.2,0.7,0.7v8.3h15v-8.3c0-0.5,0.2-0.7,0.7-0.7h3.5c0.5,0,0.7,0.2,0.7,0.7v21
			c0,0.5-0.2,0.7-0.7,0.7h-3.5c-0.5,0-0.7-0.2-0.7-0.7v-8.5h-15v8.5c0,0.5-0.2,0.7-0.7,0.7h-3.5c-0.5,0-0.7-0.2-0.7-0.7v-21
			c0-0.5,0.2-0.7,0.7-0.7H121.1z"/>
		<path class="st0" d="M161.2,18.4c1.1,0,2,0.1,2.7,0.3c0.7,0.2,1.3,0.5,1.7,0.9c0.4,0.4,0.7,1,0.9,1.6c0.2,0.7,0.3,1.5,0.3,2.4v3
			c0,0.7-0.2,1.2-0.4,1.4c-0.3,0.3-0.8,0.4-1.4,0.4h-16.2v0.8c0,1,0.2,1.7,0.7,2.2c0.5,0.4,1.4,0.7,2.8,0.7h13.3
			c0.4,0,0.6,0.2,0.6,0.6v2.7c0,0.4-0.2,0.6-0.6,0.6h-13.8c-1.5,0-2.7-0.1-3.6-0.4c-1-0.2-1.7-0.6-2.3-1.1c-0.6-0.5-1-1.2-1.3-2
			c-0.3-0.8-0.4-1.8-0.4-3v-4.6c0-1.2,0.1-2.1,0.4-3c0.3-0.8,0.7-1.5,1.3-2c0.6-0.5,1.4-0.9,2.3-1.2c1-0.2,2.2-0.4,3.6-0.4H161.2z
			 M148.8,25.7h13c0.4,0,0.5-0.2,0.5-0.5v-1.3c0-0.7-0.1-1.1-0.4-1.4c-0.3-0.3-0.8-0.4-1.5-0.4h-8c-1.4,0-2.3,0.2-2.8,0.7
			c-0.5,0.4-0.7,1.2-0.7,2.2V25.7z"/>
		<path class="st0" d="M185.9,18.4c0.4,0,0.6,0.2,0.6,0.6v2.7c0,0.4-0.2,0.6-0.6,0.6h-8.5c-0.7,0-1.2,0.1-1.7,0.2s-0.8,0.3-1.1,0.6
			c-0.3,0.3-0.5,0.6-0.6,1.1c-0.1,0.5-0.2,1-0.2,1.7v9.5c0,0.5-0.2,0.7-0.7,0.7H170c-0.5,0-0.7-0.2-0.7-0.7V24.9
			c0-1.2,0.1-2.1,0.4-3c0.3-0.8,0.7-1.5,1.3-2c0.6-0.5,1.4-0.9,2.3-1.2c1-0.2,2.2-0.4,3.6-0.4H185.9z"/>
		<path class="st0" d="M204.5,18.4c1.1,0,2,0.1,2.7,0.3c0.7,0.2,1.3,0.5,1.7,0.9c0.4,0.4,0.7,1,0.9,1.6c0.2,0.7,0.3,1.5,0.3,2.4v3
			c0,0.7-0.2,1.2-0.4,1.4c-0.3,0.3-0.8,0.4-1.4,0.4H192v0.8c0,1,0.2,1.7,0.7,2.2c0.5,0.4,1.4,0.7,2.8,0.7h13.3
			c0.4,0,0.6,0.2,0.6,0.6v2.7c0,0.4-0.2,0.6-0.6,0.6h-13.8c-1.5,0-2.7-0.1-3.6-0.4c-1-0.2-1.7-0.6-2.3-1.1c-0.6-0.5-1-1.2-1.3-2
			c-0.3-0.8-0.4-1.8-0.4-3v-4.6c0-1.2,0.1-2.1,0.4-3c0.3-0.8,0.7-1.5,1.3-2c0.6-0.5,1.4-0.9,2.3-1.2c1-0.2,2.2-0.4,3.6-0.4H204.5z
			 M192,25.7h13c0.4,0,0.5-0.2,0.5-0.5v-1.3c0-0.7-0.1-1.1-0.4-1.4c-0.3-0.3-0.8-0.4-1.5-0.4h-8c-1.4,0-2.3,0.2-2.8,0.7
			c-0.5,0.4-0.7,1.2-0.7,2.2V25.7z"/>
	</g>
	<g>
		<path class="st1" d="M18.8,48l17.1-13.8c1-0.6,1.7-1.7,1.7-2.9V13.5c0-1.2-0.6-2.3-1.7-2.9L20.4,1.8c-1-0.6-2.3-0.6-3.3,0
			L1.7,10.7c-1,0.6-1.7,1.7-1.7,2.9v17.8c0,1.2,0.6,2.3,1.7,2.9L18.8,48z"/>
		<path class="st2" d="M35,10.8l-14.2-8c-1-0.6-2.6-0.8-3.6-0.2L3.8,10.2C2.8,10.8,2,11.8,2,13L2,29.7c0,1.2,1.2,2.8,2.2,3.4
			l13.2,7.2c1,0.6,3.1,0.5,4.1-0.1L32,33.4c1-0.6,3.6-2.2,3.6-3.4l0.4-16.8C35.9,12.1,36,11.4,35,10.8z"/>
		<g>
			<g>
				<rect x="11.6" y="19.6" class="st1" width="3" height="12"/>
				<rect x="16.9" y="16.6" class="st1" width="3" height="15"/>
				<rect x="22.2" y="22.6" class="st1" width="3" height="9"/>
			</g>
		</g>
		<path class="st0" d="M35.8,9.3L20.4,0.4c-1-0.6-2.3-0.6-3.3,0L1.7,9.3C0.7,9.9,0,11,0,12.2V30c0,1.2,0.6,2.3,1.7,2.9l15.4,8.9
			c1,0.6,2.3,0.6,3.3,0l15.4-8.9c1-0.6,1.7-1.7,1.7-2.9V12.2C37.5,11,36.8,9.9,35.8,9.3z M35,28.8c0,1-0.5,2.1-1.4,2.5
			c-1.5,0.5-28.3,0.3-29.5,0c-1-0.2-1.4-1.5-1.4-2.5V13.4c0-1,0.5-2,1.4-2.5l13.3-7.7c0.9-0.5,2-0.5,2.9,0l13.3,7.7
			c0.9,0.5,1.4,1.5,1.4,2.5V28.8z"/>
	</g>
</g>
</svg>
