<svg width="20" height="21" viewBox="0 0 20 21" fill="none" xmlns="http://www.w3.org/2000/svg">
<path d="M7.7952 17.9998C8.38281 18.5185 9.15468 18.8332 10.0001 18.8332C10.8454 18.8332 11.6173 18.5185 12.2049 17.9998M15.0001 7.1665C15.0001 5.84042 14.4733 4.56865 13.5356 3.63097C12.5979 2.69329 11.3261 2.1665 10.0001 2.1665C8.67397 2.1665 7.4022 2.69329 6.46452 3.63097C5.52684 4.56865 5.00006 5.84042 5.00006 7.1665C5.00006 9.74166 4.35045 11.5048 3.62478 12.671C3.01266 13.6547 2.7066 14.1466 2.71783 14.2838C2.73025 14.4357 2.76244 14.4937 2.88487 14.5845C2.99544 14.6665 3.49388 14.6665 4.49077 14.6665H15.5093C16.5062 14.6665 17.0047 14.6665 17.1152 14.5845C17.2377 14.4937 17.2699 14.4357 17.2823 14.2838C17.2935 14.1466 16.9875 13.6547 16.3753 12.671C15.6497 11.5048 15.0001 9.74166 15.0001 7.1665Z" stroke="#667085" stroke-width="2" stroke-linecap="round" stroke-linejoin="round"/>
</svg>
