<svg width="20" height="20" viewBox="0 0 20 20" fill="none" xmlns="http://www.w3.org/2000/svg">
<path d="M7.50004 9.58314L9.16671 11.2498L12.9167 7.49981M16.6667 9.99981C16.6667 14.0902 12.2051 17.0651 10.5817 18.0122C10.3972 18.1198 10.305 18.1737 10.1748 18.2016C10.0737 18.2232 9.92634 18.2232 9.82531 18.2016C9.69512 18.1737 9.60287 18.1198 9.41838 18.0122C7.79501 17.0651 3.33337 14.0902 3.33337 9.99981V6.01448C3.33337 5.34822 3.33337 5.01509 3.44234 4.72873C3.5386 4.47576 3.69503 4.25004 3.89809 4.07109C4.12795 3.86851 4.43987 3.75154 5.06371 3.5176L9.53188 1.84204C9.70512 1.77707 9.79175 1.74459 9.88086 1.73171C9.9599 1.72029 10.0402 1.72029 10.1192 1.73171C10.2083 1.74459 10.295 1.77707 10.4682 1.84204L14.9364 3.5176C15.5602 3.75154 15.8721 3.86851 16.102 4.07109C16.3051 4.25004 16.4615 4.47576 16.5577 4.72873C16.6667 5.01509 16.6667 5.34822 16.6667 6.01448V9.99981Z" stroke="#667085" stroke-width="2" stroke-linecap="round" stroke-linejoin="round"/>
</svg>
